<svg xmlns="http://www.w3.org/2000/svg" x="0px" y="0px" width="100" height="100" viewBox="0 0 50 50">
<path d="M 39 6 C 33.578655 6 29 9.709521 29 14.5 C 29 16.300468 29.738864 17.919773 30.84375 19.279297 C 30.361395 21.268347 29.345703 22.244141 29.345703 22.244141 A 1.0001 1.0001 0 0 0 30 24 C 32.688605 24 34.58996 23.536163 36.28125 22.658203 C 37.245098 22.871995 38.300397 23 39 23 C 44.421345 23 49 19.290479 49 14.5 C 49 9.709521 44.421345 6 39 6 z M 39 8 C 43.520655 8 47 11.006479 47 14.5 C 47 17.993521 43.520655 21 39 21 C 38.407638 21 37.198953 20.887596 36.421875 20.677734 A 1.0001 1.0001 0 0 0 35.669922 20.773438 C 34.631092 21.361745 33.401709 21.658358 31.917969 21.824219 C 32.304783 21.130682 32.725606 20.428397 32.929688 19.341797 A 1.0001 1.0001 0 0 0 32.669922 18.466797 C 31.598606 17.345636 31 15.992668 31 14.5 C 31 11.006479 34.479345 8 39 8 z M 39 10 A 1 1 0 0 0 39 12 A 1 1 0 0 0 39 10 z M 18 12 C 13.509127 12 10 15.714342 10 20.244141 L 10 24.072266 C 10 26.653754 11.103143 29.018706 13 30.544922 L 13 33 C 13 33.0563 13.01839 33.05501 12.876953 33.191406 C 12.735514 33.327805 12.429211 33.527572 12.007812 33.728516 C 11.165017 34.130403 9.8963489 34.554584 8.5820312 35.160156 C 7.2677137 35.765728 5.8834809 36.564975 4.8046875 37.820312 C 3.7258941 39.075651 3 40.79883 3 43 A 1.0001 1.0001 0 0 0 4 44 L 32 44 A 1.0001 1.0001 0 0 0 33 43 C 33 40.780685 32.276007 39.051507 31.195312 37.796875 C 30.114618 36.542243 28.72702 35.753398 27.412109 35.158203 C 26.097198 34.563009 24.829191 34.147791 23.990234 33.75 C 23.570756 33.551104 23.26897 33.353652 23.128906 33.216797 C 22.988843 33.079942 23 33.074695 23 33 L 23 30.546875 C 24.897172 29.020886 26 26.654894 26 24.072266 L 26 20.244141 C 26 15.714342 22.490873 12 18 12 z M 38.984375 12.986328 A 1.0001 1.0001 0 0 0 38 14 L 38 18 A 1.0001 1.0001 0 1 0 40 18 L 40 14 A 1.0001 1.0001 0 0 0 38.984375 12.986328 z M 18 14 C 21.403127 14 24 16.725939 24 20.244141 L 24 24.072266 C 24 26.273127 23.033585 28.198371 21.4375 29.283203 A 1.0001 1.0001 0 0 0 21 30.109375 L 21 33 C 21 33.649805 21.323657 34.248992 21.730469 34.646484 C 22.13728 35.043977 22.616744 35.311021 23.134766 35.556641 C 24.170809 36.047881 25.402802 36.442085 26.587891 36.978516 C 27.77298 37.514946 28.885381 38.179415 29.679688 39.101562 C 30.299757 39.821433 30.671369 40.793598 30.841797 42 L 5.1601562 42 C 5.3313293 40.809639 5.7002832 39.844544 6.3203125 39.123047 C 7.1165191 38.196541 8.2322863 37.522866 9.4179688 36.976562 C 10.603651 36.430259 11.834983 36.02541 12.867188 35.533203 C 13.38329 35.2871 13.858236 35.021847 14.263672 34.630859 C 14.669107 34.239872 15 33.647948 15 33 L 15 30.109375 A 1.0001 1.0001 0 0 0 14.5625 29.283203 C 12.966614 28.198506 12 26.272008 12 24.072266 L 12 20.244141 C 12 16.725939 14.596873 14 18 14 z"></path>
</svg>