<svg xmlns="http://www.w3.org/2000/svg" x="0px" y="0px" width="100" height="100" viewBox="0 0 100 100">
<path fill="#c7ede6" d="M88.157,56.649c0.299-0.614,0.563-1.259,0.792-1.935c2.622-7.739-1.343-17.008-9.693-19.245 c-0.903-11.338-8.87-19.115-17.867-20.442c-10.298-1.519-19.733,5.023-22.872,15.422c-3.784-1.34-7.471-1.177-10.945,0.853 c-1.576,0.729-3.018,1.805-4.312,3.22c-1.9,2.077-3.134,4.7-3.637,7.465c-0.745,0.117-1.477,0.235-2.167,0.482 c-4.023,1.443-6.562,4.413-7.258,8.886c-0.434,2.785,0.441,5.564,0.929,6.687c1.927,4.436,6.396,6.952,10.936,6.286 c0.226-0.033,0.554,0.069,0.749,0.232c0.24,7.091,3.683,13.362,8.848,16.944c8.287,5.748,18.949,3.977,25.675-3.905 c2.882,2.948,6.313,4.38,10.342,3.86c4.006-0.517,7.117-2.728,9.387-6.322c1.048,0.282,2.043,0.689,3.071,0.801 c4.025,0.44,7.294-1.161,9.692-4.78c0.918-1.385,1.786-3.181,1.786-6.328C91.612,61.586,90.324,58.63,88.157,56.649z"></path><path fill="#fdfcef" d="M70.167,66.362c0,0,11.643,0,11.714,0c2.689,0,4.868-2.219,4.868-4.955 c0-2.388-1.659-4.379-3.868-4.85c0.025-0.209,0.043-0.42,0.043-0.636c0-2.834-2.257-5.132-5.042-5.132 c-1.644,0-3.1,0.805-4.02,2.044c-0.235-3.155-3.004-5.588-6.244-5.185c-2.369,0.295-4.328,2.159-4.764,4.546 c-0.14,0.765-0.125,1.509,0.014,2.206c-0.635-0.696-1.539-1.135-2.546-1.135c-1.843,0-3.347,1.46-3.466,3.306 c-0.837-0.188-1.747-0.176-2.706,0.19c-1.832,0.7-3.137,2.456-3.214,4.447c-0.108,2.827,2.111,5.154,4.864,5.154 c0.209,0,0.944,0,1.114,0h10.109"></path><path fill="#472b29" d="M81.881,66.872H70.167c-0.276,0-0.5-0.228-0.5-0.509c0-0.281,0.224-0.509,0.5-0.509h11.714 c2.409,0,4.368-1.995,4.368-4.447c0-2.094-1.459-3.922-3.471-4.351c-0.255-0.054-0.426-0.298-0.394-0.562 c0.023-0.188,0.039-0.379,0.039-0.572c0-2.549-2.038-4.624-4.542-4.624c-1.432,0-2.752,0.672-3.622,1.843 c-0.125,0.169-0.337,0.242-0.54,0.181c-0.199-0.06-0.342-0.238-0.357-0.449c-0.104-1.395-0.775-2.705-1.842-3.596 c-1.078-0.898-2.442-1.297-3.843-1.124c-2.156,0.27-3.938,1.969-4.333,4.135c-0.124,0.675-0.119,1.352,0.013,2.012 c0.044,0.224-0.062,0.45-0.262,0.554c-0.2,0.106-0.443,0.061-0.595-0.106c-0.572-0.626-1.346-0.971-2.18-0.971 c-1.562,0-2.865,1.243-2.967,2.828c-0.01,0.149-0.082,0.285-0.199,0.374c-0.117,0.09-0.265,0.121-0.408,0.091 c-0.837-0.189-1.631-0.131-2.422,0.17c-1.662,0.635-2.823,2.238-2.89,3.99c-0.047,1.223,0.385,2.382,1.216,3.261 c0.832,0.88,1.95,1.365,3.148,1.365h11.223c0.276,0,0.5,0.228,0.5,0.509c0,0.281-0.224,0.509-0.5,0.509h-11.22 c-1.473,0-2.848-0.595-3.869-1.676c-1.021-1.081-1.552-2.504-1.495-4.007c0.083-2.156,1.504-4.126,3.538-4.902 c0.796-0.305,1.621-0.406,2.457-0.304c0.376-1.846,1.99-3.224,3.891-3.224c0.681,0,1.347,0.181,1.934,0.515 c0-0.39,0.035-0.782,0.106-1.17c0.475-2.598,2.611-4.638,5.195-4.96c1.676-0.207,3.308,0.272,4.599,1.348 c0.999,0.833,1.708,1.974,2.029,3.233c1.008-0.927,2.309-1.443,3.697-1.443c3.056,0,5.542,2.53,5.542,5.641 c0,0.083-0.002,0.167-0.006,0.25c2.245,0.683,3.832,2.816,3.832,5.235C87.249,64.421,84.841,66.872,81.881,66.872z"></path><path fill="#fdfcef" d="M67.346,55.302c-1.801-0.118-3.351,1.126-3.462,2.778c-0.014,0.205-0.005,0.407,0.025,0.604 c-0.347-0.392-0.862-0.659-1.452-0.697c-1.08-0.071-2.013,0.643-2.149,1.613c-0.197-0.054-0.401-0.09-0.614-0.104 c-1.576-0.103-2.932,0.985-3.029,2.431"></path><path fill="#472b29" d="M56.665,62.175c-0.006,0-0.012,0-0.017-0.001c-0.138-0.009-0.242-0.128-0.233-0.266 c0.106-1.58,1.59-2.769,3.295-2.663c0.136,0.009,0.272,0.026,0.407,0.053c0.273-0.963,1.26-1.635,2.356-1.562 c0.423,0.027,0.82,0.159,1.158,0.38c0.001-0.018,0.002-0.036,0.003-0.054c0.12-1.787,1.788-3.144,3.728-3.011 c0.138,0.009,0.242,0.128,0.233,0.266c-0.009,0.138-0.115,0.263-0.266,0.232c-1.661-0.079-3.094,1.033-3.196,2.546 c-0.012,0.183-0.004,0.368,0.023,0.55c0.017,0.109-0.041,0.217-0.141,0.264c-0.098,0.047-0.218,0.022-0.293-0.061 c-0.322-0.362-0.777-0.58-1.282-0.614c-0.946-0.052-1.767,0.554-1.884,1.398c-0.01,0.071-0.05,0.135-0.11,0.175 s-0.134,0.051-0.204,0.032c-0.187-0.051-0.376-0.083-0.565-0.097c-1.438-0.1-2.675,0.893-2.763,2.198 C56.905,62.074,56.796,62.175,56.665,62.175z"></path><path fill="#fdfcef" d="M83.852,56.964c-1.692-0.798-3.649-0.233-4.371,1.261c-0.09,0.186-0.156,0.377-0.2,0.571"></path><path fill="#472b29" d="M79.281,59.046c-0.018,0-0.037-0.002-0.056-0.006c-0.135-0.031-0.219-0.165-0.188-0.3 c0.049-0.215,0.123-0.425,0.219-0.624c0.78-1.615,2.889-2.234,4.703-1.38c0.125,0.06,0.179,0.208,0.12,0.333 c-0.059,0.126-0.209,0.176-0.333,0.12c-1.568-0.74-3.379-0.226-4.04,1.144c-0.08,0.166-0.141,0.34-0.182,0.519 C79.498,58.968,79.395,59.046,79.281,59.046z"></path><path fill="#c0e5e4" d="M69.474,66.171h-33.4c-2.567,0-4.667-2.11-4.667-4.69V41.627c0-2.579,2.1-4.69,4.667-4.69h33.401 c2.567,0,4.667,2.11,4.667,4.69v19.855C74.141,64.06,72.041,66.171,69.474,66.171z"></path><path fill="#472b29" d="M69.474,66.875h-33.4c-2.959,0-5.367-2.42-5.367-5.393V41.627c0-2.973,2.408-5.393,5.367-5.393 h33.4c2.959,0,5.367,2.42,5.367,5.393v19.855C74.842,64.455,72.434,66.875,69.474,66.875z M36.074,37.641 c-2.187,0-3.966,1.788-3.966,3.986v19.855c0,2.199,1.779,3.986,3.966,3.986h33.4c2.188,0,3.967-1.788,3.967-3.986V41.627 c0-2.199-1.779-3.986-3.967-3.986C69.474,37.641,36.074,37.641,36.074,37.641z"></path><path fill="#a8dbdb" d="M33.541,64.354c0.844,0.913,1.43,1.091,2.719,1.091h33.262c1.289,0,1.675,0.011,2.519-0.901 l-19.25-17.611L33.541,64.354z"></path><path fill="#e0fcf8" d="M72.041,38.6c-0.844-0.806-1.43-0.963-2.719-0.963H36.06c-1.289,0-1.675-0.01-2.519,0.796 L53.25,53.973L72.041,38.6z"></path><path fill="#472b29" d="M53.335,54.811c-0.081,0-0.163-0.026-0.23-0.079L32.477,38.594 c-0.163-0.128-0.193-0.365-0.065-0.529c0.127-0.164,0.362-0.195,0.526-0.065l20.391,15.951l19.274-15.944 c0.16-0.132,0.396-0.11,0.528,0.051c0.132,0.161,0.109,0.398-0.051,0.53L53.573,54.724C53.505,54.783,53.42,54.811,53.335,54.811z"></path><g><path fill="#472b29" d="M33.269 65.293c-.103 0-.206-.042-.28-.126-.138-.155-.125-.394.03-.532L45.802 53.16c.154-.141.391-.126.53.029.138.155.125.394-.03.532L33.519 65.197C33.447 65.261 33.358 65.293 33.269 65.293zM72.28 65.293c-.089 0-.178-.031-.25-.096L59.246 53.72c-.154-.139-.167-.377-.03-.532.138-.155.375-.17.53-.029L72.53 64.635c.154.139.167.377.03.532C72.485 65.251 72.383 65.293 72.28 65.293z"></path></g><g><path fill="#472b29" d="M32.79,69.971h-1.103c-0.276,0-0.5-0.224-0.5-0.5s0.224-0.5,0.5-0.5h1.103 c0.276,0,0.5,0.224,0.5,0.5S33.067,69.971,32.79,69.971z"></path></g><g><path fill="#fff" d="M68.5 24h-10c-.276 0-.5-.224-.5-.5s.224-.5.5-.5h10c.276 0 .5.224.5.5S68.776 24 68.5 24zM72.5 24h-2c-.276 0-.5-.224-.5-.5s.224-.5.5-.5h2c.276 0 .5.224.5.5S72.776 24 72.5 24zM77.5 26h-10c-.276 0-.5-.224-.5-.5s.224-.5.5-.5h10c.276 0 .5.224.5.5S77.777 26 77.5 26zM65.5 26h-1c-.276 0-.5-.224-.5-.5s.224-.5.5-.5h1c.276 0 .5.224.5.5S65.776 26 65.5 26zM62.375 26H60.5c-.276 0-.5-.224-.5-.5s.224-.5.5-.5h1.875c.276 0 .5.224.5.5S62.651 26 62.375 26zM71.5 22h-5c-.276 0-.5-.224-.5-.5s.224-.5.5-.5h5c.276 0 .5.224.5.5S71.777 22 71.5 22zM68.5 28h-2c-.276 0-.5-.224-.5-.5s.224-.5.5-.5h2c.276 0 .5.224.5.5S68.776 28 68.5 28z"></path></g><g><path fill="#fff" d="M16.405 50H6.5C6.224 50 6 49.776 6 49.5S6.224 49 6.5 49h9.905c.276 0 .5.224.5.5S16.682 50 16.405 50zM19.5 50h-1c-.276 0-.5-.224-.5-.5s.224-.5.5-.5h1c.276 0 .5.224.5.5S19.777 50 19.5 50zM24.491 52H15.5c-.276 0-.5-.224-.5-.5s.224-.5.5-.5h8.991c.276 0 .5.224.5.5S24.767 52 24.491 52zM13.5 52h-1c-.276 0-.5-.224-.5-.5s.224-.5.5-.5h1c.276 0 .5.224.5.5S13.777 52 13.5 52zM10.5 52h-2C8.224 52 8 51.776 8 51.5S8.224 51 8.5 51h2c.276 0 .5.224.5.5S10.777 52 10.5 52zM16.5 54h-2c-.276 0-.5-.224-.5-.5s.224-.5.5-.5h2c.276 0 .5.224.5.5S16.776 54 16.5 54zM19.5 45c-.177 0-.823 0-1 0-.276 0-.5.224-.5.5 0 .276.224.5.5.5.177 0 .823 0 1 0 .276 0 .5-.224.5-.5C20 45.224 19.776 45 19.5 45zM19.5 47c-.177 0-4.823 0-5 0-.276 0-.5.224-.5.5 0 .276.224.5.5.5.177 0 4.823 0 5 0 .276 0 .5-.224.5-.5C20 47.224 19.776 47 19.5 47zM24.5 49c-.177 0-2.823 0-3 0-.276 0-.5.224-.5.5 0 .276.224.5.5.5.177 0 2.823 0 3 0 .276 0 .5-.224.5-.5C25 49.224 24.776 49 24.5 49z"></path></g><g><path fill="#fdfcef" d="M35.5,69.5c0,0,1.567,0,3.5,0s3.5-1.567,3.5-3.5c0-1.781-1.335-3.234-3.055-3.455 C39.473,62.366,39.5,62.187,39.5,62c0-1.933-1.567-3.5-3.5-3.5c-1.032,0-1.95,0.455-2.59,1.165 c-0.384-1.808-1.987-3.165-3.91-3.165c-2.209,0-4,1.791-4,4c0,0.191,0.03,0.374,0.056,0.558C25.128,60.714,24.592,60.5,24,60.5 c-1.228,0-2.245,0.887-2.455,2.055C21.366,62.527,21.187,62.5,21,62.5c-1.933,0-3.5,1.567-3.5,3.5s1.567,3.5,3.5,3.5s7.5,0,7.5,0 V70h7V69.5z"></path><path fill="#472b29" d="M37.25 65C37.112 65 37 64.888 37 64.75c0-1.223.995-2.218 2.218-2.218.034.009.737-.001 1.244.136.133.036.212.173.176.306-.036.134-.173.213-.306.176-.444-.12-1.1-.12-1.113-.118-.948 0-1.719.771-1.719 1.718C37.5 64.888 37.388 65 37.25 65zM30.5 69A.5.5 0 1 0 30.5 70 .5.5 0 1 0 30.5 69z"></path><path fill="#472b29" d="M39,70h-3.5c-0.276,0-0.5-0.224-0.5-0.5s0.224-0.5,0.5-0.5H39c1.654,0,3-1.346,3-3 c0-1.496-1.125-2.768-2.618-2.959c-0.134-0.018-0.255-0.088-0.336-0.196s-0.115-0.244-0.094-0.377C38.975,62.314,39,62.16,39,62 c0-1.654-1.346-3-3-3c-0.85,0-1.638,0.355-2.219,1c-0.125,0.139-0.321,0.198-0.5,0.148c-0.182-0.049-0.321-0.195-0.36-0.379 C32.58,58.165,31.141,57,29.5,57c-1.93,0-3.5,1.57-3.5,3.5c0,0.143,0.021,0.28,0.041,0.418c0.029,0.203-0.063,0.438-0.242,0.54 c-0.179,0.102-0.396,0.118-0.556-0.01C24.878,61.155,24.449,61,24,61c-0.966,0-1.792,0.691-1.963,1.644 c-0.048,0.267-0.296,0.446-0.569,0.405C21.314,63.025,21.16,63,21,63c-1.654,0-3,1.346-3,3s1.346,3,3,3h7.5 c0.276,0,0.5,0.224,0.5,0.5S28.776,70,28.5,70H21c-2.206,0-4-1.794-4-4s1.794-4,4-4c0.059,0,0.116,0.002,0.174,0.006 C21.588,60.82,22.711,60,24,60c0.349,0,0.689,0.061,1.011,0.18C25.176,57.847,27.126,56,29.5,56c1.831,0,3.466,1.127,4.153,2.774 C34.333,58.276,35.155,58,36,58c2.206,0,4,1.794,4,4c0,0.048-0.001,0.095-0.004,0.142C41.739,62.59,43,64.169,43,66 C43,68.206,41.206,70,39,70z"></path><path fill="#472b29" d="M33.5,69c-0.159,0-0.841,0-1,0c-0.276,0-0.5,0.224-0.5,0.5c0,0.276,0.224,0.5,0.5,0.5 c0.159,0,0.841,0,1,0c0.276,0,0.5-0.224,0.5-0.5C34,69.224,33.776,69,33.5,69z"></path></g>
</svg>