<svg xmlns="http://www.w3.org/2000/svg" x="0px" y="0px" width="100" height="100" viewBox="0 0 100 100">
<circle cx="77" cy="13" r="1" fill="#f1bc19"></circle><circle cx="50" cy="50" r="37" fill="#e4e4f9"></circle><circle cx="83" cy="15" r="4" fill="#f1bc19"></circle><circle cx="87" cy="24" r="2" fill="#8889b9"></circle><circle cx="81" cy="76" r="2" fill="#fbcd59"></circle><circle cx="15" cy="63" r="4" fill="#fbcd59"></circle><circle cx="25" cy="87" r="2" fill="#8889b9"></circle><circle cx="79.5" cy="33.5" r="1.5" fill="#fff"></circle><path fill="#f6cca4" d="M78,44.541C72.37,54.85,62.091,61.75,50.344,61.75c-11.723,0-21.983-6.871-27.621-17.144v-0.064 c5.63-10.309,15.909-17.209,27.656-17.209c11.723,0,21.983,6.871,27.621,17.144V44.541z"></path><path fill="#472b29" d="M50.344,63.075c-11.669,0-22.227-6.828-28.241-18.265c-0.053-0.101-0.081-0.213-0.081-0.326 c0-0.387,0.313-0.733,0.7-0.733c0.341,0,0.626,0.219,0.688,0.536c5.779,10.892,15.837,17.388,26.934,17.388 c11.151,0,21.244-6.553,27.01-17.532c0.106-0.262,0.355-0.458,0.646-0.458c0.387,0,0.7,0.279,0.7,0.666v0.067 c0,0.113-0.027,0.225-0.08,0.324C72.702,56.051,61.867,63.075,50.344,63.075z"></path><path fill="#472b29" d="M37.874,39.813c-0.057,0-0.114-0.02-0.161-0.059c-1.244-1.049-2.319-2.245-3.198-3.556 c-0.028-0.042-0.042-0.09-0.042-0.14c0-0.138,0.112-0.265,0.25-0.265c0.118,0,0.217,0.071,0.243,0.179 c0.846,1.251,1.878,2.395,3.069,3.398c0.105,0.089,0.119,0.247,0.03,0.353C38.016,39.783,37.945,39.813,37.874,39.813z"></path><path fill="#472b29" d="M50.352,44.625c-3.812,0-7.471-1.083-10.582-3.132c-0.115-0.076-0.147-0.231-0.071-0.347 c0.076-0.117,0.231-0.146,0.347-0.071c3.029,1.995,6.593,3.05,10.307,3.05c6.278,0,12.186-3.144,15.423-8.206 c0.096-0.211,0.475-0.155,0.475,0.081v0.031c0,0.048-0.014,0.094-0.039,0.135C62.885,41.384,56.808,44.625,50.352,44.625z"></path><path fill="#472b29" d="M50.347,54.5c-9.434,0-17.974-5.336-22.844-14.273c-0.02-0.036-0.03-0.077-0.03-0.119 c0-0.138,0.112-0.277,0.25-0.277c0.134,0,0.244,0.081,0.25,0.213C32.758,48.783,41.118,54,50.347,54 c2.229,0,4.444-0.311,6.581-0.924c0.134-0.04,0.271,0.039,0.309,0.171c0.038,0.133-0.039,0.271-0.171,0.31 C54.883,54.183,52.623,54.5,50.347,54.5z"></path><path fill="#472b29" d="M59.926,52.304c-0.097,0-0.19-0.058-0.23-0.152c-0.054-0.127,0.006-0.274,0.133-0.328 c2.375-1.005,4.602-2.384,6.616-4.098c0.105-0.089,0.263-0.076,0.353,0.028c0.089,0.105,0.077,0.263-0.028,0.353 c-2.053,1.747-4.323,3.152-6.745,4.178C59.991,52.298,59.958,52.304,59.926,52.304z"></path><path fill="#472b29" d="M68.67,46.216c-0.062,0-0.124-0.022-0.172-0.069c-0.1-0.095-0.104-0.253-0.008-0.354 c1.657-1.736,3.096-3.7,4.278-5.837c0.086-0.23,0.482-0.197,0.482,0.044v0.053c0,0.042-0.011,0.084-0.031,0.121 c-1.205,2.184-2.675,4.19-4.368,5.965C68.802,46.189,68.736,46.216,68.67,46.216z"></path><path fill="#472b29" d="M50.5,76c-0.276,0-0.5-0.224-0.5-0.5v-13c0-0.276,0.224-0.5,0.5-0.5s0.5,0.224,0.5,0.5v13 C51,75.776,50.776,76,50.5,76z"></path><path fill="#472b29" d="M24.386,63.679c-0.239,0-0.45-0.172-0.492-0.415c-0.047-0.272,0.136-0.531,0.408-0.578 c3.549-0.61,7.009-2.684,9.492-5.688c0.175-0.213,0.489-0.244,0.704-0.067c0.213,0.177,0.243,0.491,0.067,0.704 c-2.672,3.232-6.256,5.377-10.093,6.037C24.443,63.677,24.414,63.679,24.386,63.679z"></path><g><path fill="#472b29" d="M77.18,63.679c-0.028,0-0.057-0.002-0.085-0.007c-3.836-0.66-7.421-2.805-10.093-6.037 c-0.176-0.213-0.146-0.527,0.067-0.704c0.214-0.176,0.529-0.145,0.704,0.067c2.483,3.004,5.943,5.077,9.492,5.688 c0.272,0.047,0.455,0.306,0.408,0.578C77.63,63.507,77.419,63.679,77.18,63.679z"></path></g><g><path fill="#472b29" d="M40.5,74c-0.093,0-0.188-0.026-0.272-0.081c-0.231-0.15-0.297-0.46-0.147-0.691 c1.7-2.618,3.477-8.061,4.008-11.307c0.045-0.272,0.3-0.461,0.574-0.412c0.273,0.044,0.458,0.302,0.413,0.574 c-0.548,3.344-2.39,8.967-4.157,11.689C40.824,73.92,40.663,74,40.5,74z"></path></g><g><path fill="#472b29" d="M20.5,57c-0.276,0-0.5-0.224-0.5-0.5s0.224-0.5,0.5-0.5c2.619,0,5.424-0.344,8.192-2.839 c0.205-0.187,0.521-0.169,0.707,0.036c0.185,0.205,0.168,0.521-0.037,0.706C26.343,56.625,23.318,57,20.5,57z"></path></g><g><path fill="#472b29" d="M69.582,69c-0.071,0-0.144-0.016-0.213-0.048c-4.085-1.93-6.5-5.822-7.806-8.748 c-0.113-0.252,0-0.548,0.253-0.661c0.251-0.112,0.548,0.002,0.66,0.253c1.237,2.771,3.512,6.453,7.319,8.252 c0.25,0.118,0.356,0.416,0.239,0.666C69.949,68.895,69.77,69,69.582,69z"></path></g><g><path fill="#472b29" d="M31.021,69c-0.188,0-0.367-0.105-0.453-0.286c-0.118-0.25-0.011-0.548,0.239-0.666 c3.808-1.799,6.082-5.48,7.319-8.252c0.112-0.251,0.408-0.365,0.66-0.253c0.252,0.113,0.366,0.409,0.253,0.661 c-1.306,2.926-3.721,6.818-7.806,8.748C31.165,68.984,31.092,69,31.021,69z"></path></g><g><path fill="#472b29" d="M60.583,74c-0.164,0-0.324-0.08-0.42-0.228c-1.768-2.723-3.609-8.346-4.157-11.689 c-0.044-0.272,0.141-0.53,0.413-0.574c0.272-0.046,0.529,0.14,0.574,0.412c0.531,3.246,2.308,8.688,4.008,11.307 c0.15,0.231,0.084,0.541-0.147,0.691C60.771,73.974,60.676,74,60.583,74z"></path></g><g><path fill="#472b29" d="M80.583,57c-2.819,0-5.843-0.375-8.863-3.097c-0.205-0.185-0.221-0.501-0.037-0.706 c0.186-0.205,0.501-0.223,0.707-0.036C75.158,55.656,77.963,56,80.583,56c0.276,0,0.5,0.224,0.5,0.5S80.859,57,80.583,57z"></path></g>
</svg>