<svg xmlns="http://www.w3.org/2000/svg" x="0px" y="0px" width="100" height="100" viewBox="0 0 100 100">
<circle cx="13" cy="29" r="2" fill="#ee3e54"></circle><circle cx="77" cy="13" r="1" fill="#f1bc19"></circle><circle cx="50" cy="50" r="37" fill="#fce0a2"></circle><circle cx="83" cy="15" r="4" fill="#f1bc19"></circle><circle cx="87" cy="24" r="2" fill="#ee3e54"></circle><circle cx="81" cy="76" r="2" fill="#fbcd59"></circle><circle cx="15" cy="63" r="4" fill="#fbcd59"></circle><circle cx="25" cy="87" r="2" fill="#ee3e54"></circle><circle cx="17.5" cy="53.5" r="2.5" fill="#fff"></circle><circle cx="21" cy="67" r="1" fill="#f1bc19"></circle><circle cx="80" cy="34" r="1" fill="#fff"></circle><g><path fill="#fff" d="M50.604,68.3c-11.981,0-23.294-7.013-29.609-18.33C27.281,38.074,38.61,30.7,50.643,30.7 c12.174,0,23.2,7.148,29.563,19.144C73.878,61.237,62.568,68.3,50.604,68.3z"></path><path fill="#472b29" d="M50.643,31.4c11.796,0,22.498,6.876,28.764,18.436C73.169,60.813,62.197,67.6,50.604,67.6 c-11.609,0-22.584-6.739-28.811-17.639C27.993,38.493,38.985,31.4,50.643,31.4 M50.643,30C37.732,30,26.388,38.011,20.2,49.979 C26.396,61.334,37.72,69,50.604,69C63.515,69,74.812,61.246,81,49.851C74.804,37.924,63.527,30,50.643,30L50.643,30z"></path><circle cx="50.5" cy="49.5" r="16.5" fill="#77cbd2"></circle><circle cx="50.5" cy="49.5" r="6" fill="#836f61"></circle><path fill="#472b29" d="M50.5,56c-3.584,0-6.5-2.916-6.5-6.5s2.916-6.5,6.5-6.5s6.5,2.916,6.5,6.5S54.084,56,50.5,56z M50.5,44c-3.032,0-5.5,2.467-5.5,5.5s2.468,5.5,5.5,5.5s5.5-2.467,5.5-5.5S53.532,44,50.5,44z"></path><path fill="#472b29" d="M36.346,42.185c-0.082,0-0.165-0.02-0.242-0.063c-0.241-0.134-0.329-0.438-0.195-0.68 c0.75-1.356,1.686-2.6,2.779-3.699c0.195-0.196,0.512-0.196,0.707-0.001c0.196,0.195,0.196,0.511,0.002,0.707 c-1.029,1.033-1.908,2.203-2.613,3.478C36.692,42.092,36.521,42.185,36.346,42.185z"></path><path fill="#472b29" d="M35.062,54.807c-0.213,0-0.411-0.137-0.478-0.352c-0.498-1.599-0.75-3.266-0.75-4.956 c0-2.052,0.369-4.057,1.098-5.958c0.099-0.258,0.389-0.387,0.646-0.288c0.258,0.099,0.387,0.388,0.288,0.646 c-0.685,1.786-1.031,3.671-1.031,5.6c0,1.588,0.237,3.156,0.705,4.659c0.082,0.264-0.065,0.544-0.329,0.626 C35.161,54.8,35.11,54.807,35.062,54.807z"></path><path fill="#472b29" d="M50.5,66.166c-6.426,0-12.168-3.59-14.987-9.368c-0.121-0.248-0.019-0.547,0.229-0.669 c0.248-0.12,0.547-0.019,0.669,0.23c2.65,5.432,8.049,8.807,14.089,8.807c8.639,0,15.666-7.028,15.666-15.666 S59.139,33.834,50.5,33.834c-3.356,0-6.557,1.046-9.255,3.025c-0.221,0.162-0.535,0.116-0.699-0.107 c-0.163-0.223-0.115-0.536,0.107-0.699c2.871-2.106,6.275-3.219,9.847-3.219c9.189,0,16.666,7.476,16.666,16.666 S59.689,66.166,50.5,66.166z"></path><path fill="#472b29" d="M50.5,43.757c-0.276,0-0.5-0.224-0.5-0.5v-9.811c0-0.276,0.224-0.5,0.5-0.5s0.5,0.224,0.5,0.5v9.811 C51,43.533,50.776,43.757,50.5,43.757z"></path><path fill="#472b29" d="M50.5,66.054c-0.276,0-0.5-0.224-0.5-0.5v-9.811c0-0.276,0.224-0.5,0.5-0.5s0.5,0.224,0.5,0.5v9.811 C51,65.83,50.776,66.054,50.5,66.054z"></path><path fill="#472b29" d="M44.257,50h-9.811c-0.276,0-0.5-0.224-0.5-0.5s0.224-0.5,0.5-0.5h9.811c0.276,0,0.5,0.224,0.5,0.5 S44.533,50,44.257,50z"></path><path fill="#472b29" d="M66.554,50h-9.811c-0.276,0-0.5-0.224-0.5-0.5s0.224-0.5,0.5-0.5h9.811c0.276,0,0.5,0.224,0.5,0.5 S66.83,50,66.554,50z"></path><path fill="#472b29" d="M54.915,45.585c-0.128,0-0.256-0.049-0.354-0.146c-0.195-0.195-0.195-0.512,0-0.707l6.937-6.937 c0.195-0.195,0.512-0.195,0.707,0s0.195,0.512,0,0.707l-6.937,6.937C55.171,45.536,55.043,45.585,54.915,45.585z"></path><path fill="#472b29" d="M39.148,61.352c-0.128,0-0.256-0.049-0.354-0.146c-0.195-0.195-0.195-0.512,0-0.707l6.937-6.937 c0.195-0.195,0.512-0.195,0.707,0s0.195,0.512,0,0.707l-6.937,6.937C39.404,61.303,39.276,61.352,39.148,61.352z"></path><path fill="#472b29" d="M46.085,45.585c-0.128,0-0.256-0.049-0.354-0.146l-6.937-6.937c-0.195-0.195-0.195-0.512,0-0.707 s0.512-0.195,0.707,0l6.937,6.937c0.195,0.195,0.195,0.512,0,0.707C46.341,45.536,46.213,45.585,46.085,45.585z"></path><path fill="#472b29" d="M61.852,61.352c-0.128,0-0.256-0.049-0.354-0.146l-6.937-6.937c-0.195-0.195-0.195-0.512,0-0.707 s0.512-0.195,0.707,0l6.937,6.937c0.195,0.195,0.195,0.512,0,0.707C62.107,61.303,61.979,61.352,61.852,61.352z"></path><path fill="#472b29" d="M52.903,44.238c-0.064,0-0.13-0.012-0.192-0.039c-0.255-0.106-0.375-0.399-0.27-0.654l3.777-9.055 c0.106-0.255,0.401-0.375,0.654-0.269c0.255,0.106,0.375,0.399,0.27,0.654l-3.777,9.055C53.285,44.122,53.099,44.238,52.903,44.238 z"></path><path fill="#472b29" d="M44.319,64.817c-0.064,0-0.13-0.012-0.192-0.039c-0.255-0.106-0.375-0.399-0.27-0.654l3.777-9.055 c0.106-0.255,0.401-0.375,0.654-0.269c0.255,0.106,0.375,0.399,0.27,0.654l-3.777,9.055C44.701,64.701,44.515,64.817,44.319,64.817 z"></path><path fill="#472b29" d="M48.097,44.238c-0.195,0-0.382-0.116-0.462-0.308l-3.777-9.055c-0.105-0.255,0.015-0.548,0.27-0.654 c0.252-0.105,0.548,0.014,0.654,0.269l3.777,9.055c0.105,0.255-0.015,0.548-0.27,0.654C48.227,44.226,48.161,44.238,48.097,44.238z"></path><path fill="#472b29" d="M56.681,64.817c-0.195,0-0.382-0.116-0.462-0.308l-3.777-9.055c-0.105-0.255,0.015-0.548,0.27-0.654 c0.252-0.106,0.548,0.014,0.654,0.269l3.777,9.055c0.105,0.255-0.015,0.548-0.27,0.654C56.811,64.804,56.745,64.817,56.681,64.817z"></path><path fill="#472b29" d="M56.25,47.567c-0.194,0-0.38-0.115-0.461-0.305c-0.107-0.254,0.012-0.548,0.266-0.655l9.035-3.823 c0.255-0.107,0.548,0.011,0.656,0.266c0.107,0.254-0.012,0.548-0.266,0.655l-9.035,3.823C56.381,47.554,56.315,47.567,56.25,47.567 z"></path><path fill="#472b29" d="M35.715,56.257c-0.194,0-0.38-0.115-0.461-0.305c-0.107-0.254,0.012-0.548,0.266-0.655l9.035-3.823 c0.255-0.107,0.548,0.011,0.656,0.266c0.107,0.254-0.012,0.548-0.266,0.655l-9.035,3.823C35.846,56.244,35.78,56.257,35.715,56.257 z"></path><path fill="#472b29" d="M65.379,56.031c-0.063,0-0.126-0.012-0.188-0.037l-9.093-3.685 c-0.256-0.104-0.38-0.395-0.276-0.651s0.396-0.379,0.651-0.276l9.093,3.685c0.256,0.104,0.38,0.395,0.276,0.651 C65.764,55.913,65.576,56.031,65.379,56.031z"></path><path fill="#472b29" d="M44.714,47.655c-0.063,0-0.126-0.012-0.188-0.037l-9.093-3.685 c-0.256-0.104-0.38-0.395-0.276-0.651s0.396-0.379,0.651-0.276l9.093,3.685c0.256,0.104,0.38,0.395,0.276,0.651 C45.099,47.537,44.911,47.655,44.714,47.655z"></path></g>
</svg>