<svg xmlns="http://www.w3.org/2000/svg" x="0px" y="0px" width="100" height="100" viewBox="0,0,256,256">
<g fill="none" fill-rule="nonzero" stroke="none" stroke-width="1" stroke-linecap="butt" stroke-linejoin="miter" stroke-miterlimit="10" stroke-dasharray="" stroke-dashoffset="0" font-family="none" font-weight="none" font-size="none" text-anchor="none" style="mix-blend-mode: normal"><g transform="scale(2.56,2.56)"><path d="M88.703,56.831c0.3,-0.616 0.566,-1.264 0.796,-1.943c2.633,-7.77 -1.349,-17.078 -9.733,-19.325c-0.906,-11.384 -8.906,-19.193 -17.941,-20.525c-10.341,-1.525 -19.814,5.044 -22.966,15.485c-3.799,-1.346 -7.501,-1.182 -10.99,0.857c-1.583,0.732 -3.031,1.812 -4.33,3.233c-1.907,2.086 -3.147,4.719 -3.652,7.495c-0.748,0.118 -1.483,0.236 -2.176,0.484c-4.04,1.449 -6.589,4.431 -7.288,8.923c-0.435,2.797 0.443,5.587 0.933,6.714c1.935,4.455 6.422,6.98 10.981,6.312c0.227,-0.033 0.557,0.069 0.752,0.233c0.241,7.12 3.698,13.417 8.884,17.014c8.321,5.772 19.027,3.994 25.781,-3.921c2.894,2.96 6.338,4.398 10.384,3.876c4.023,-0.519 7.147,-2.739 9.426,-6.349c1.053,0.283 2.051,0.691 3.083,0.804c4.042,0.442 7.324,-1.165 9.732,-4.8c0.922,-1.391 1.793,-3.194 1.793,-6.354c0.001,-3.256 -1.292,-6.224 -3.469,-8.213z" fill="#c7ede6"></path><path d="M18.369,48.866h-10.031c-0.276,0 -0.5,-0.224 -0.5,-0.5c0,-0.276 0.224,-0.5 0.5,-0.5h10.031c0.276,0 0.5,0.224 0.5,0.5c0,0.276 -0.224,0.5 -0.5,0.5zM21.249,48.866h-1.446c-0.276,0 -0.5,-0.224 -0.5,-0.5c0,-0.276 0.224,-0.5 0.5,-0.5h1.446c0.276,0 0.5,0.224 0.5,0.5c0,0.276 -0.223,0.5 -0.5,0.5zM25.304,48.866h-2.546c-0.276,0 -0.5,-0.224 -0.5,-0.5c0,-0.276 0.224,-0.5 0.5,-0.5h2.546c0.276,0 0.5,0.224 0.5,0.5c0,0.276 -0.224,0.5 -0.5,0.5zM25.304,50.731h-9.616c-0.276,0 -0.5,-0.224 -0.5,-0.5c0,-0.276 0.224,-0.5 0.5,-0.5h9.616c0.276,0 0.5,0.224 0.5,0.5c0,0.276 -0.224,0.5 -0.5,0.5zM13.956,50.731h-0.58c-0.276,0 -0.5,-0.224 -0.5,-0.5c0,-0.276 0.224,-0.5 0.5,-0.5h0.58c0.276,0 0.5,0.224 0.5,0.5c0,0.276 -0.223,0.5 -0.5,0.5zM11.58,50.731h-1.457c-0.276,0 -0.5,-0.224 -0.5,-0.5c0,-0.276 0.224,-0.5 0.5,-0.5h1.457c0.276,0 0.5,0.224 0.5,0.5c0,0.276 -0.224,0.5 -0.5,0.5zM20.715,47.002h-5.027c-0.276,0 -0.5,-0.224 -0.5,-0.5c0,-0.276 0.224,-0.5 0.5,-0.5h5.027c0.276,0 0.5,0.224 0.5,0.5c0,0.276 -0.223,0.5 -0.5,0.5zM20.715,45.137h-1.257c-0.276,0 -0.5,-0.224 -0.5,-0.5c0,-0.276 0.224,-0.5 0.5,-0.5h1.257c0.276,0 0.5,0.224 0.5,0.5c0,0.276 -0.223,0.5 -0.5,0.5zM17.447,52.596h-1.759c-0.276,0 -0.5,-0.224 -0.5,-0.5c0,-0.276 0.224,-0.5 0.5,-0.5h1.759c0.276,0 0.5,0.224 0.5,0.5c0,0.276 -0.224,0.5 -0.5,0.5z" fill="#ffffff"></path><path d="M30.806,77.203c0,0 11.691,0 11.762,0c2.7,0 4.888,-2.189 4.888,-4.889c0,-2.355 -1.666,-4.321 -3.884,-4.784c0.026,-0.206 0.043,-0.415 0.043,-0.628c0,-2.796 -2.267,-5.063 -5.063,-5.063c-1.651,0 -3.113,0.794 -4.037,2.017c-0.236,-3.113 -3.017,-5.514 -6.27,-5.116c-2.379,0.291 -4.346,2.13 -4.784,4.486c-0.14,0.756 -0.126,1.489 0.014,2.177c-0.638,-0.687 -1.546,-1.119 -2.557,-1.119c-1.85,0 -3.361,1.441 -3.48,3.261c-0.84,-0.186 -1.754,-0.174 -2.717,0.188c-1.84,0.691 -3.15,2.423 -3.227,4.387c-0.109,2.789 2.12,5.085 4.885,5.085c0.21,0 0.948,0 1.118,0h10.153" fill="#fdfcef"></path><path d="M42.568,77.703h-11.761c-0.276,0 -0.5,-0.224 -0.5,-0.5c0,-0.276 0.224,-0.5 0.5,-0.5h11.762c2.42,0 4.389,-1.969 4.389,-4.389c0,-2.067 -1.466,-3.873 -3.486,-4.295c-0.255,-0.053 -0.426,-0.292 -0.394,-0.55c0.023,-0.186 0.039,-0.375 0.039,-0.567c0,-2.516 -2.047,-4.563 -4.563,-4.563c-1.438,0 -2.765,0.663 -3.638,1.818c-0.125,0.166 -0.338,0.239 -0.54,0.178c-0.199,-0.059 -0.342,-0.234 -0.357,-0.441c-0.104,-1.377 -0.779,-2.671 -1.851,-3.549c-1.082,-0.887 -2.451,-1.281 -3.86,-1.109c-2.166,0.265 -3.956,1.943 -4.353,4.081c-0.125,0.667 -0.12,1.335 0.012,1.986c0.045,0.219 -0.062,0.442 -0.261,0.544c-0.2,0.103 -0.442,0.06 -0.595,-0.104c-0.574,-0.619 -1.352,-0.959 -2.19,-0.959c-1.569,0 -2.878,1.227 -2.981,2.793c-0.01,0.146 -0.082,0.28 -0.199,0.367c-0.117,0.087 -0.268,0.119 -0.408,0.088c-0.84,-0.186 -1.637,-0.131 -2.433,0.167c-1.669,0.626 -2.836,2.209 -2.903,3.938c-0.047,1.207 0.387,2.35 1.222,3.218c0.835,0.868 1.958,1.347 3.163,1.347h11.27c0.276,0 0.5,0.224 0.5,0.5c0,0.276 -0.224,0.5 -0.5,0.5h-11.27c-1.479,0 -2.858,-0.587 -3.884,-1.654c-1.025,-1.066 -1.558,-2.469 -1.5,-3.95c0.083,-2.126 1.51,-4.069 3.551,-4.836c0.8,-0.3 1.627,-0.4 2.468,-0.298c0.376,-1.823 1.997,-3.182 3.905,-3.182c0.684,0 1.354,0.179 1.944,0.509c0,-0.385 0.035,-0.772 0.107,-1.159c0.476,-2.562 2.62,-4.573 5.215,-4.891c1.676,-0.208 3.32,0.266 4.615,1.328c1.004,0.823 1.716,1.951 2.038,3.193c1.012,-0.916 2.319,-1.425 3.714,-1.425c3.067,0 5.563,2.496 5.563,5.563c0,0.083 -0.002,0.166 -0.007,0.249c2.254,0.672 3.848,2.777 3.848,5.164c-0.002,2.973 -2.42,5.39 -5.391,5.39z" fill="#472b29"></path><path d="M27.973,66.434c-1.808,-0.119 -3.365,1.13 -3.476,2.789c-0.014,0.206 -0.005,0.409 0.025,0.606c-0.349,-0.394 -0.865,-0.661 -1.458,-0.7c-1.085,-0.071 -2.022,0.645 -2.158,1.62c-0.197,-0.054 -0.403,-0.09 -0.616,-0.104c-1.582,-0.104 -2.944,0.989 -3.042,2.441" fill="#fdfcef"></path><path d="M17.249,73.336c-0.006,0 -0.012,0 -0.017,0c-0.138,-0.009 -0.242,-0.128 -0.233,-0.266c0.106,-1.587 1.59,-2.794 3.307,-2.674c0.136,0.009 0.272,0.027 0.409,0.053c0.273,-0.968 1.258,-1.64 2.365,-1.568c0.425,0.028 0.824,0.161 1.164,0.382c0,-0.019 0.002,-0.037 0.003,-0.055c0.121,-1.793 1.796,-3.141 3.743,-3.022c0.138,0.009 0.242,0.128 0.233,0.266c-0.009,0.138 -0.124,0.248 -0.266,0.233c-1.66,-0.111 -3.108,1.037 -3.21,2.557c-0.012,0.184 -0.004,0.37 0.023,0.552c0.017,0.109 -0.041,0.217 -0.141,0.264c-0.101,0.047 -0.22,0.022 -0.293,-0.061c-0.317,-0.358 -0.787,-0.583 -1.288,-0.616c-0.93,-0.061 -1.775,0.555 -1.893,1.405c-0.01,0.071 -0.05,0.134 -0.11,0.174c-0.061,0.04 -0.134,0.051 -0.204,0.033c-0.188,-0.051 -0.379,-0.084 -0.567,-0.096c-1.425,-0.095 -2.688,0.896 -2.775,2.208c-0.009,0.13 -0.119,0.231 -0.25,0.231z" fill="#472b29"></path><path d="M44.548,68.103c-1.699,-0.801 -3.664,-0.234 -4.389,1.267c-0.09,0.186 -0.157,0.379 -0.201,0.574" fill="#fdfcef"></path><path d="M39.958,70.193c-0.018,0 -0.037,-0.002 -0.056,-0.006c-0.135,-0.031 -0.219,-0.165 -0.188,-0.299c0.049,-0.216 0.123,-0.427 0.22,-0.626c0.783,-1.621 2.9,-2.243 4.72,-1.384c0.125,0.059 0.179,0.208 0.12,0.333c-0.059,0.125 -0.21,0.177 -0.333,0.12c-1.574,-0.743 -3.394,-0.226 -4.057,1.149c-0.08,0.166 -0.142,0.34 -0.183,0.52c-0.026,0.115 -0.129,0.193 -0.243,0.193z" fill="#472b29"></path><path d="M63.825,74.774h-27.65c-5.5,0 -10,-4.5 -10,-10v-27.649c0,-5.5 4.5,-10 10,-10h27.649c5.5,0 10,4.5 10,10v27.649c0.001,5.5 -4.499,10 -9.999,10z" fill="#339af0"></path><path d="M63.825,75.474h-27.65c-5.9,0 -10.7,-4.8 -10.7,-10.7v-27.649c0,-5.9 4.8,-10.7 10.7,-10.7h27.649c5.9,0 10.7,4.8 10.7,10.7v27.649c0.001,5.9 -4.799,10.7 -10.699,10.7zM36.175,27.825c-5.128,0 -9.3,4.172 -9.3,9.3v27.649c0,5.128 4.172,9.3 9.3,9.3h27.649c5.128,0 9.3,-4.172 9.3,-9.3v-27.649c0,-5.128 -4.172,-9.3 -9.3,-9.3z" fill="#472b29"></path><path d="M62.602,71.745h-25.205c-4.518,0 -8.193,-3.675 -8.193,-8.193v-25.206c0,-4.518 3.675,-8.193 8.193,-8.193h25.46c0.207,0 0.375,0.168 0.375,0.375c0,0.207 -0.168,0.375 -0.375,0.375h-25.46c-4.104,0 -7.443,3.339 -7.443,7.443v25.206c0,4.104 3.339,7.443 7.443,7.443h25.205c4.104,0 7.444,-3.339 7.444,-7.443v-14.115c0,-0.207 0.168,-0.375 0.375,-0.375c0.207,0 0.375,0.168 0.375,0.375v14.115c0,4.518 -3.675,8.193 -8.194,8.193zM70.421,47.543c-0.207,0 -0.375,-0.168 -0.375,-0.375v-3.025c0,-0.207 0.168,-0.375 0.375,-0.375c0.207,0 0.375,0.168 0.375,0.375v3.025c0,0.207 -0.168,0.375 -0.375,0.375zM70.421,43.005c-0.207,0 -0.375,-0.168 -0.375,-0.375v-1.513c0,-0.207 0.168,-0.375 0.375,-0.375c0.207,0 0.375,0.168 0.375,0.375v1.513c0,0.207 -0.168,0.375 -0.375,0.375z" fill="#472b29"></path><path d="M80.647,76.567c1.883,0 3.517,0 3.54,0c2.11,0 3.821,-1.674 3.821,-3.739c0,-1.802 -1.302,-3.305 -3.035,-3.66c0.02,-0.158 0.034,-0.317 0.034,-0.48c0,-2.139 -1.772,-3.873 -3.957,-3.873c-1.29,0 -2.433,0.607 -3.155,1.543c-0.185,-2.381 -2.358,-4.218 -4.9,-3.913c-1.859,0.223 -3.397,1.629 -3.739,3.431c-0.11,0.578 -0.098,1.139 0.011,1.665c-0.498,-0.525 -1.208,-0.856 -1.998,-0.856c-1.446,0 -2.627,1.102 -2.72,2.494c-0.657,-0.142 -1.371,-0.133 -2.123,0.143c-1.438,0.528 -2.462,1.853 -2.522,3.356c-0.085,2.133 1.657,3.889 3.818,3.889c0.164,0 0.741,0 0.874,0h7.934M74.17,76.567h0.36" fill="#fdfcef"></path><path d="M84.188,77.067h-3.541c-0.276,0 -0.5,-0.224 -0.5,-0.5c0,-0.276 0.224,-0.5 0.5,-0.5h3.541c1.831,0 3.32,-1.453 3.32,-3.239c0,-1.524 -1.108,-2.857 -2.635,-3.17c-0.256,-0.052 -0.429,-0.293 -0.396,-0.553c0.018,-0.137 0.029,-0.276 0.029,-0.417c0,-1.86 -1.551,-3.373 -3.457,-3.373c-1.092,0 -2.098,0.491 -2.759,1.348c-0.127,0.164 -0.34,0.231 -0.539,0.173c-0.198,-0.059 -0.339,-0.234 -0.355,-0.44c-0.079,-1.019 -0.565,-1.944 -1.37,-2.604c-0.828,-0.68 -1.884,-0.981 -2.973,-0.852c-1.646,0.197 -3.006,1.442 -3.307,3.028c-0.094,0.494 -0.091,0.988 0.01,1.471c0.045,0.219 -0.06,0.441 -0.258,0.544c-0.196,0.104 -0.44,0.064 -0.595,-0.099c-0.428,-0.452 -1.009,-0.7 -1.636,-0.7c-1.169,0 -2.145,0.891 -2.221,2.027c-0.01,0.145 -0.082,0.279 -0.198,0.366c-0.116,0.088 -0.263,0.12 -0.407,0.089c-0.639,-0.139 -1.242,-0.097 -1.845,0.124c-1.262,0.464 -2.144,1.632 -2.195,2.906c-0.035,0.875 0.283,1.708 0.895,2.345c0.635,0.661 1.496,1.024 2.423,1.024h8.808c0.276,0 0.5,0.224 0.5,0.5c0,0.276 -0.224,0.5 -0.5,0.5h-8.808c-1.185,0 -2.331,-0.485 -3.145,-1.332c-0.802,-0.835 -1.218,-1.928 -1.172,-3.077c0.066,-1.674 1.211,-3.203 2.849,-3.805c0.61,-0.225 1.241,-0.306 1.88,-0.245c0.344,-1.395 1.629,-2.424 3.135,-2.424c0.493,0 0.977,0.113 1.414,0.323c0.009,-0.242 0.037,-0.484 0.083,-0.726c0.381,-2.009 2.097,-3.586 4.17,-3.834c1.362,-0.159 2.685,0.218 3.726,1.072c0.748,0.613 1.278,1.409 1.546,2.302c0.791,-0.648 1.785,-1.007 2.842,-1.007c2.458,0 4.457,1.961 4.457,4.373c0,0.034 0,0.068 -0.001,0.102c1.764,0.555 3.003,2.188 3.003,4.038c0.002,2.34 -1.936,4.242 -4.318,4.242zM74.53,77.067h-0.36c-0.276,0 -0.5,-0.224 -0.5,-0.5c0,-0.276 0.224,-0.5 0.5,-0.5h0.359c0.276,0 0.5,0.224 0.5,0.5c0,0.276 -0.223,0.5 -0.499,0.5z" fill="#472b29"></path><path d="M82.48,71.264c-0.018,0 -0.037,-0.002 -0.055,-0.006c-0.135,-0.03 -0.219,-0.165 -0.188,-0.299c0.038,-0.167 0.095,-0.327 0.169,-0.479c0.604,-1.224 2.274,-1.676 3.722,-1.007c0.125,0.058 0.18,0.207 0.122,0.332c-0.058,0.125 -0.206,0.18 -0.332,0.122c-1.201,-0.556 -2.577,-0.208 -3.063,0.774c-0.058,0.116 -0.101,0.24 -0.13,0.367c-0.028,0.117 -0.131,0.196 -0.245,0.196zM77.321,77.067h-1.107c-0.276,0 -0.5,-0.224 -0.5,-0.5c0,-0.276 0.224,-0.5 0.5,-0.5h1.107c0.276,0 0.5,0.224 0.5,0.5c0,0.276 -0.223,0.5 -0.5,0.5z" fill="#472b29"></path><path d="M48.3,55.466c-0.023,-0.114 -0.034,-0.229 -0.034,-0.343c0,-0.114 0,-0.229 0,-0.343c0,-0.893 0.12,-1.688 0.361,-2.387c0.241,-0.698 0.538,-1.333 0.893,-1.906c0.355,-0.572 0.744,-1.11 1.167,-1.614c0.423,-0.503 0.812,-1.013 1.168,-1.528c0.355,-0.515 0.653,-1.065 0.893,-1.648c0.241,-0.584 0.361,-1.242 0.361,-1.975c0,-1.053 -0.321,-1.935 -0.962,-2.644c-0.641,-0.71 -1.592,-1.065 -2.85,-1.065c-0.779,0 -1.425,0.057 -1.94,0.171c-0.515,0.115 -0.944,0.258 -1.288,0.43c-0.343,0.171 -0.618,0.372 -0.824,0.601c-0.206,0.229 -0.39,0.459 -0.55,0.687c0.55,0.023 1.013,0.235 1.391,0.635c0.378,0.401 0.567,0.91 0.567,1.528c0,0.687 -0.201,1.283 -0.601,1.786c-0.401,0.504 -1.059,0.756 -1.975,0.756c-0.733,0 -1.322,-0.258 -1.769,-0.773c-0.446,-0.515 -0.67,-1.162 -0.67,-1.94c0,-0.641 0.131,-1.316 0.394,-2.026c0.263,-0.709 0.72,-1.368 1.371,-1.975c0.652,-0.607 1.514,-1.11 2.588,-1.511c1.074,-0.4 2.434,-0.601 4.079,-0.601c1.142,0 2.216,0.086 3.222,0.258c1.006,0.171 1.885,0.481 2.639,0.927c0.754,0.446 1.348,1.042 1.782,1.786c0.434,0.744 0.652,1.678 0.652,2.799c0,1.03 -0.182,1.906 -0.546,2.627c-0.364,0.721 -0.825,1.362 -1.382,1.923c-0.557,0.561 -1.16,1.076 -1.808,1.546c-0.648,0.469 -1.27,0.973 -1.864,1.511c-0.594,0.538 -1.103,1.151 -1.526,1.837c-0.424,0.687 -0.682,1.511 -0.773,2.473h-2.166zM52.25,61.408c0,0.755 -0.263,1.397 -0.79,1.923c-0.527,0.527 -1.168,0.79 -1.924,0.79c-0.733,0 -1.368,-0.263 -1.906,-0.79c-0.538,-0.527 -0.807,-1.168 -0.807,-1.923c0,-0.733 0.269,-1.368 0.807,-1.906c0.538,-0.538 1.173,-0.807 1.906,-0.807c0.756,0 1.396,0.269 1.924,0.807c0.526,0.538 0.79,1.173 0.79,1.906z" fill="#fdfcee"></path><path d="M49.536,64.47c-0.824,0 -1.548,-0.299 -2.15,-0.89c-0.605,-0.592 -0.913,-1.323 -0.913,-2.173c0,-0.826 0.306,-1.55 0.91,-2.154c0.604,-0.604 1.328,-0.91 2.153,-0.91c0.849,0 1.58,0.307 2.174,0.912c0.59,0.604 0.89,1.328 0.89,2.151c0,0.848 -0.3,1.578 -0.892,2.171c-0.594,0.593 -1.324,0.893 -2.172,0.893zM49.536,59.044c-0.642,0 -1.184,0.23 -1.658,0.705c-0.474,0.475 -0.705,1.017 -0.705,1.659c0,0.664 0.229,1.211 0.702,1.673c0.474,0.464 1.018,0.689 1.661,0.689c0.665,0 1.213,-0.225 1.677,-0.687c0.462,-0.462 0.687,-1.011 0.687,-1.676c0,-0.643 -0.226,-1.187 -0.69,-1.662c-0.463,-0.471 -1.011,-0.701 -1.674,-0.701zM50.464,55.816h-2.164c-0.166,0 -0.31,-0.117 -0.343,-0.28c-0.028,-0.135 -0.042,-0.274 -0.042,-0.414v-0.343c0,-0.927 0.128,-1.769 0.379,-2.501c0.249,-0.721 0.561,-1.386 0.927,-1.977c0.361,-0.583 0.764,-1.14 1.197,-1.655c0.411,-0.489 0.797,-0.994 1.147,-1.502c0.34,-0.493 0.628,-1.025 0.857,-1.583c0.222,-0.537 0.334,-1.157 0.334,-1.842c0,-0.973 -0.285,-1.761 -0.871,-2.409c-0.569,-0.63 -1.44,-0.95 -2.591,-0.95c-0.748,0 -1.375,0.055 -1.865,0.164c-0.486,0.108 -0.892,0.243 -1.207,0.4c-0.302,0.151 -0.544,0.327 -0.721,0.523c-0.062,0.068 -0.121,0.137 -0.179,0.206c0.383,0.117 0.723,0.332 1.015,0.642c0.439,0.466 0.662,1.061 0.662,1.769c0,0.765 -0.228,1.439 -0.677,2.003c-0.469,0.589 -1.225,0.888 -2.249,0.888c-0.835,0 -1.519,-0.301 -2.033,-0.894c-0.501,-0.578 -0.755,-1.308 -0.755,-2.169c0,-0.68 0.14,-1.402 0.416,-2.148c0.282,-0.759 0.773,-1.468 1.46,-2.109c0.684,-0.636 1.593,-1.168 2.704,-1.583c1.109,-0.413 2.522,-0.623 4.202,-0.623c1.156,0 2.26,0.088 3.28,0.263c1.042,0.178 1.97,0.504 2.758,0.971c0.802,0.475 1.443,1.118 1.906,1.911c0.464,0.795 0.699,1.796 0.699,2.976c0,1.081 -0.196,2.018 -0.583,2.785c-0.378,0.749 -0.864,1.426 -1.446,2.012c-0.567,0.571 -1.19,1.104 -1.852,1.583c-0.638,0.462 -1.255,0.963 -1.834,1.487c-0.567,0.514 -1.06,1.107 -1.463,1.762c-0.394,0.639 -0.637,1.419 -0.722,2.322c-0.015,0.178 -0.166,0.315 -0.346,0.315zM48.616,55.116h1.536c0.12,-0.878 0.384,-1.653 0.787,-2.306c0.438,-0.711 0.973,-1.355 1.589,-1.913c0.598,-0.542 1.235,-1.058 1.893,-1.535c0.631,-0.457 1.225,-0.964 1.766,-1.509c0.53,-0.534 0.973,-1.151 1.318,-1.834c0.337,-0.669 0.508,-1.5 0.508,-2.47c0,-1.054 -0.203,-1.937 -0.604,-2.623c-0.402,-0.688 -0.96,-1.248 -1.658,-1.661c-0.715,-0.423 -1.562,-0.72 -2.52,-0.883c-0.981,-0.168 -2.045,-0.253 -3.163,-0.253c-1.595,0 -2.926,0.195 -3.957,0.579c-1.024,0.382 -1.856,0.867 -2.472,1.439c-0.607,0.565 -1.038,1.185 -1.281,1.84c-0.247,0.667 -0.372,1.308 -0.372,1.905c0,0.698 0.191,1.258 0.584,1.711c0.38,0.439 0.872,0.652 1.504,0.652c0.799,0 1.372,-0.21 1.701,-0.624c0.354,-0.444 0.525,-0.957 0.525,-1.568c0,-0.531 -0.154,-0.952 -0.471,-1.288c-0.315,-0.334 -0.692,-0.507 -1.151,-0.526c-0.127,-0.005 -0.242,-0.08 -0.299,-0.194c-0.057,-0.115 -0.047,-0.251 0.026,-0.356c0.167,-0.239 0.36,-0.48 0.576,-0.72c0.236,-0.262 0.548,-0.49 0.928,-0.68c0.366,-0.183 0.827,-0.337 1.369,-0.458c0.54,-0.12 1.218,-0.18 2.017,-0.18c1.356,0 2.403,0.397 3.11,1.181c0.698,0.772 1.052,1.741 1.052,2.878c0,0.777 -0.13,1.486 -0.387,2.108c-0.248,0.603 -0.561,1.18 -0.929,1.714c-0.363,0.526 -0.762,1.049 -1.188,1.555c-0.411,0.489 -0.793,1.018 -1.138,1.573c-0.339,0.546 -0.628,1.164 -0.86,1.836c-0.227,0.658 -0.341,1.423 -0.341,2.273v0.337zM58.065,74.626c-0.027,0 -0.055,-0.007 -0.08,-0.023c-0.07,-0.044 -0.091,-0.137 -0.047,-0.207l1.963,-3.106c0.045,-0.07 0.137,-0.091 0.207,-0.047c0.07,0.044 0.091,0.137 0.047,0.207l-1.963,3.106c-0.029,0.046 -0.077,0.07 -0.127,0.07zM57.065,74.626c-0.027,0 -0.055,-0.007 -0.08,-0.023c-0.07,-0.044 -0.091,-0.137 -0.047,-0.207l1.963,-3.106c0.045,-0.07 0.137,-0.091 0.207,-0.047c0.07,0.044 0.091,0.137 0.047,0.207l-1.963,3.106c-0.029,0.046 -0.077,0.07 -0.127,0.07zM56.065,74.626c-0.027,0 -0.055,-0.007 -0.08,-0.023c-0.07,-0.044 -0.091,-0.137 -0.047,-0.207l1.963,-3.106c0.045,-0.07 0.137,-0.091 0.207,-0.047c0.07,0.044 0.091,0.137 0.047,0.207l-1.963,3.106c-0.029,0.046 -0.077,0.07 -0.127,0.07zM55.065,74.626c-0.027,0 -0.055,-0.007 -0.08,-0.023c-0.07,-0.044 -0.091,-0.137 -0.047,-0.207l1.963,-3.106c0.045,-0.07 0.137,-0.091 0.207,-0.047c0.07,0.044 0.091,0.137 0.047,0.207l-1.963,3.106c-0.029,0.046 -0.077,0.07 -0.127,0.07zM54.065,74.626c-0.027,0 -0.055,-0.007 -0.08,-0.023c-0.07,-0.044 -0.091,-0.137 -0.047,-0.207l1.963,-3.106c0.044,-0.07 0.137,-0.091 0.207,-0.047c0.07,0.044 0.091,0.137 0.047,0.207l-1.963,3.106c-0.029,0.046 -0.077,0.07 -0.127,0.07zM53.065,74.626c-0.027,0 -0.055,-0.007 -0.08,-0.023c-0.07,-0.044 -0.091,-0.137 -0.047,-0.207l1.963,-3.106c0.044,-0.07 0.136,-0.091 0.207,-0.047c0.07,0.044 0.091,0.137 0.047,0.207l-1.963,3.106c-0.029,0.046 -0.077,0.07 -0.127,0.07zM52.065,74.626c-0.027,0 -0.055,-0.007 -0.08,-0.023c-0.07,-0.044 -0.091,-0.137 -0.047,-0.207l1.297,-2.053c0.044,-0.07 0.137,-0.091 0.207,-0.047c0.07,0.044 0.091,0.137 0.047,0.207l-1.297,2.053c-0.029,0.046 -0.077,0.07 -0.127,0.07zM51.065,74.626c-0.027,0 -0.055,-0.007 -0.08,-0.023c-0.07,-0.044 -0.091,-0.137 -0.047,-0.207l0.814,-1.289c0.044,-0.071 0.137,-0.09 0.207,-0.047c0.07,0.044 0.091,0.137 0.047,0.207l-0.814,1.289c-0.029,0.046 -0.077,0.07 -0.127,0.07z" fill="#472b29"></path></g></g>
</svg>