<svg xmlns="http://www.w3.org/2000/svg" x="0px" y="0px" width="100" height="100" viewBox="0,0,256,256">
<g fill="#20c997" fill-rule="nonzero" stroke="none" stroke-width="1" stroke-linecap="butt" stroke-linejoin="miter" stroke-miterlimit="10" stroke-dasharray="" stroke-dashoffset="0" font-family="none" font-weight="none" font-size="none" text-anchor="none" style="mix-blend-mode: normal"><g transform="scale(4,4)"><path d="M31.76563,2.00391c-4.32497,0.12676 -7.76537,3.66927 -7.76562,7.99609v6c-3.86421,0.0043 -6.9957,3.13579 -7,7v14c0.0043,3.86421 3.13579,6.9957 7,7h16c3.86414,-0.00446 6.99554,-3.13586 7,-7v-14c-0.00446,-3.86414 -3.13586,-6.99554 -7,-7v-6c-0.00013,-2.16229 -0.87554,-4.23245 -2.4268,-5.73881c-1.55125,-1.50636 -3.64621,-2.32063 -5.80758,-2.25728zM32.17578,4.00195c3.24411,0.09508 5.82456,2.75255 5.82422,5.99805v6h-12v-6c-0.00017,-1.62189 0.65628,-3.17476 1.81975,-4.30475c1.16347,-1.12999 2.73484,-1.74082 4.35603,-1.6933zM24,18h16c2.76008,0.00325 4.99675,2.23992 5,5v14c-0.00325,2.76008 -2.23992,4.99675 -5,5h-16c-2.76008,-0.00325 -4.99675,-2.23992 -5,-5v-14c0.00325,-2.76008 2.23992,-4.99675 5,-5zM31.98828,21.98242c-2.14946,0.00512 -4.05504,1.38364 -4.7325,3.42355c-0.67746,2.03991 0.02486,4.28453 1.74422,5.57449v4.01953c0,1.65685 1.34315,3 3,3c1.65685,0 3,-1.34315 3,-3v-4.01953c1.72281,-1.29255 2.42412,-3.5432 1.74051,-5.58561c-0.68361,-2.04241 -2.59846,-3.41741 -4.75223,-3.41244zM32.00586,23.99805c0.6759,-0.00205 1.33212,0.22749 1.85938,0.65039c0.77854,0.61396 1.20109,1.57467 1.12747,2.56344c-0.07362,0.98876 -0.63378,1.87631 -1.49465,2.3682c-0.3084,0.17899 -0.49817,0.50865 -0.49805,0.86523v4.55469c0,0.55228 -0.44772,1 -1,1c-0.55228,0 -1,-0.44772 -1,-1v-4.55469c-0.00057,-0.35588 -0.19024,-0.68464 -0.49805,-0.86328c-1.17466,-0.66705 -1.75283,-2.04151 -1.4082,-3.34766c0.2739,-1.06099 1.10798,-1.88607 2.17188,-2.14844c0.2426,-0.05736 0.49095,-0.08685 0.74023,-0.08789zM8,42c-3.86421,0.0043 -6.9957,3.13579 -7,7v6c0.0043,3.86421 3.13579,6.9957 7,7h48c3.86414,-0.00446 6.99554,-3.13586 7,-7v-6c-0.00446,-3.86414 -3.13586,-6.99554 -7,-7h-7c-0.55228,0 -1,0.44772 -1,1c0,0.55228 0.44772,1 1,1h7c2.76008,0.00325 4.99675,2.23992 5,5v6c-0.00325,2.76008 -2.23992,4.99675 -5,5h-48c-2.76008,-0.00325 -4.99675,-2.23992 -5,-5v-6c0.00325,-2.76008 2.23992,-4.99675 5,-5h7c0.55228,0 1,-0.44772 1,-1c0,-0.55228 -0.44772,-1 -1,-1zM8.49023,46.98828c-0.40785,-0.00082 -0.77533,0.24614 -0.92865,0.62407c-0.15332,0.37794 -0.06176,0.81111 0.23138,1.09468l3.29297,3.29297l-3.29297,3.29297c-0.2588,0.25133 -0.36216,0.62257 -0.27049,0.97148c0.09167,0.34891 0.36416,0.6214 0.71307,0.71307c0.34891,0.09167 0.72015,-0.0117 0.97148,-0.27049l3.29297,-3.29297l3.29297,3.29297c0.3921,0.38079 1.0173,0.37621 1.40379,-0.01028c0.38649,-0.38649 0.39106,-1.01168 0.01028,-1.40379l-3.29297,-3.29297l3.29297,-3.29297c0.38079,-0.3921 0.37621,-1.0173 -0.01028,-1.40379c-0.38649,-0.38649 -1.01168,-0.39106 -1.40379,-0.01028l-3.29297,3.29297l-3.29297,-3.29297c-0.18794,-0.19426 -0.44651,-0.30417 -0.7168,-0.30469zM29.48633,47c-0.26047,0.00356 -0.50925,0.10868 -0.69336,0.29297l-3.29297,3.29297l-3.29297,-3.29297c-0.3921,-0.38079 -1.0173,-0.37621 -1.40379,0.01028c-0.38649,0.38649 -0.39106,1.01168 -0.01028,1.40379l3.29297,3.29297l-3.29297,3.29297c-0.2588,0.25133 -0.36217,0.62257 -0.2705,0.97149c0.09167,0.34891 0.36416,0.62141 0.71308,0.71308c0.34891,0.09167 0.72015,-0.0117 0.97149,-0.2705l3.29297,-3.29297l3.29297,3.29297c0.3921,0.38079 1.0173,0.37621 1.40379,-0.01028c0.38649,-0.38649 0.39106,-1.01168 0.01028,-1.40379l-3.29297,-3.29297l3.29297,-3.29297c0.18764,-0.18745 0.29307,-0.4418 0.29307,-0.70703c0,-0.26523 -0.10543,-0.51958 -0.29307,-0.70703c-0.1908,-0.19099 -0.45076,-0.29666 -0.7207,-0.29297zM42.48633,47c-0.26047,0.00356 -0.50925,0.10868 -0.69336,0.29297l-3.29297,3.29297l-3.29297,-3.29297c-0.3921,-0.38079 -1.0173,-0.37621 -1.40379,0.01028c-0.38649,0.38649 -0.39106,1.01168 -0.01028,1.40379l3.29297,3.29297l-3.29297,3.29297c-0.2588,0.25133 -0.36217,0.62257 -0.2705,0.97149c0.09167,0.34891 0.36416,0.62141 0.71308,0.71308c0.34891,0.09167 0.72015,-0.0117 0.97149,-0.2705l3.29297,-3.29297l3.29297,3.29297c0.3921,0.38079 1.0173,0.37621 1.40379,-0.01028c0.38649,-0.38649 0.39106,-1.01168 0.01028,-1.40379l-3.29297,-3.29297l3.29297,-3.29297c0.18764,-0.18745 0.29307,-0.4418 0.29307,-0.70703c0,-0.26523 -0.10543,-0.51958 -0.29307,-0.70703c-0.1908,-0.19099 -0.45076,-0.29666 -0.7207,-0.29297zM55.48633,47c-0.26047,0.00356 -0.50925,0.10868 -0.69336,0.29297l-3.29297,3.29297l-3.29297,-3.29297c-0.3921,-0.38079 -1.0173,-0.37621 -1.40379,0.01028c-0.38649,0.38649 -0.39106,1.01168 -0.01028,1.40379l3.29297,3.29297l-3.29297,3.29297c-0.2588,0.25133 -0.36217,0.62257 -0.2705,0.97149c0.09167,0.34891 0.36416,0.62141 0.71308,0.71308c0.34891,0.09167 0.72015,-0.0117 0.97149,-0.2705l3.29297,-3.29297l3.29297,3.29297c0.3921,0.38079 1.0173,0.37621 1.40379,-0.01028c0.38649,-0.38649 0.39106,-1.01168 0.01028,-1.40379l-3.29297,-3.29297l3.29297,-3.29297c0.18764,-0.18745 0.29307,-0.4418 0.29307,-0.70703c0,-0.26523 -0.10543,-0.51958 -0.29307,-0.70703c-0.1908,-0.19099 -0.45076,-0.29666 -0.7207,-0.29297z"></path></g></g>
</svg>