<svg xmlns="http://www.w3.org/2000/svg" x="0px" y="0px" width="100" height="100" viewBox="0,0,256,256">
<defs><radialGradient cx="32" cy="31.5" r="30.775" gradientUnits="userSpaceOnUse" id="color-1_119035_gr1"><stop offset="0" stop-color="#000000" stop-opacity="0"></stop><stop offset="0.193" stop-color="#000000" stop-opacity="0"></stop><stop offset="0.703" stop-color="#000000" stop-opacity="0"></stop><stop offset="1" stop-color="#000000" stop-opacity="0"></stop></radialGradient><linearGradient x1="32" y1="3.997" x2="32" y2="58.003" gradientUnits="userSpaceOnUse" id="color-2_119035_gr2"><stop offset="0" stop-color="#42d778"></stop><stop offset="0.996" stop-color="#34b171"></stop><stop offset="1" stop-color="#34b171"></stop></linearGradient></defs><g fill="none" fill-rule="nonzero" stroke="none" stroke-width="1" stroke-linecap="butt" stroke-linejoin="miter" stroke-miterlimit="10" stroke-dasharray="" stroke-dashoffset="0" font-family="none" font-weight="none" font-size="none" text-anchor="none" style="mix-blend-mode: normal"><g transform="scale(4,4)"><path d="M59,20h1.5c2.168,0 3.892,-1.998 3.422,-4.243c-0.342,-1.635 -1.866,-2.757 -3.537,-2.757h-7.385c-1.105,0 -2,-0.895 -2,-2c0,-1.105 0.895,-2 2,-2h3.385c1.67,0 3.195,-1.122 3.537,-2.757c0.47,-2.245 -1.254,-4.243 -3.422,-4.243h-22.494h-1.506h-24c-1.925,0 -3.5,1.575 -3.5,3.5c0,1.925 1.575,3.5 3.5,3.5h1.5c1.105,0 2,0.895 2,2c0,1.105 -0.895,2 -2,2h-5.385c-1.67,0 -3.195,1.122 -3.537,2.757c-0.47,2.245 1.254,4.243 3.422,4.243h13.5v12h-14.385c-1.67,0 -3.195,1.122 -3.537,2.757c-0.47,2.245 1.254,4.243 3.422,4.243h0.5c1.105,0 2,0.895 2,2c0,1.105 -0.895,2 -2,2h-0.5c-2.168,0 -3.892,1.998 -3.422,4.243c0.342,1.635 1.867,2.757 3.537,2.757h6.385c1.105,0 2,0.895 2,2c0,1.105 -0.895,2 -2,2h-1.385c-1.67,0 -3.195,1.122 -3.537,2.757c-0.47,2.245 1.254,4.243 3.422,4.243h22.494h1.506h23c1.925,0 3.5,-1.575 3.5,-3.5c0,-1.925 -1.575,-3.5 -3.5,-3.5h-0.5c-1.105,0 -2,-0.895 -2,-2c0,-1.105 0.895,-2 2,-2h4.385c1.67,0 3.195,-1.122 3.537,-2.757c0.47,-2.245 -1.254,-4.243 -3.422,-4.243h-12.5v-12h12.385c1.67,0 3.195,-1.122 3.537,-2.757c0.47,-2.245 -1.254,-4.243 -3.422,-4.243h-0.5c-1.105,0 -2,-0.895 -2,-2c0,-1.105 0.895,-2 2,-2z" fill="url(#color-1_119035_gr1)"></path><path d="M33.49,4.662l3.387,3.78c0.523,0.583 1.338,0.808 2.086,0.574l4.964,-1.551c1.116,-0.349 2.292,0.33 2.548,1.471l1.112,4.961c0.169,0.755 0.759,1.345 1.514,1.514l4.97,1.114c1.138,0.255 1.817,1.426 1.474,2.54l-1.533,4.978c-0.229,0.744 -0.006,1.553 0.572,2.074l3.767,3.395c0.881,0.794 0.881,2.177 0,2.971l-3.767,3.395c-0.578,0.521 -0.802,1.33 -0.572,2.074l1.533,4.978c0.343,1.115 -0.336,2.285 -1.474,2.54l-4.97,1.114c-0.755,0.169 -1.345,0.759 -1.514,1.514l-1.112,4.961c-0.256,1.141 -1.432,1.82 -2.548,1.471l-4.964,-1.551c-0.748,-0.234 -1.563,-0.009 -2.086,0.574l-3.387,3.78c-0.795,0.887 -2.184,0.887 -2.979,0l-3.387,-3.78c-0.523,-0.583 -1.338,-0.808 -2.086,-0.574l-4.964,1.551c-1.116,0.349 -2.292,-0.33 -2.548,-1.471l-1.112,-4.961c-0.169,-0.755 -0.759,-1.345 -1.514,-1.514l-4.97,-1.114c-1.138,-0.255 -1.817,-1.426 -1.474,-2.54l1.533,-4.978c0.229,-0.744 0.006,-1.553 -0.572,-2.074l-3.767,-3.395c-0.881,-0.794 -0.881,-2.177 0,-2.971l3.767,-3.395c0.578,-0.521 0.802,-1.33 0.572,-2.074l-1.533,-4.978c-0.343,-1.115 0.336,-2.285 1.474,-2.54l4.97,-1.114c0.755,-0.169 1.345,-0.759 1.514,-1.514l1.112,-4.961c0.256,-1.141 1.432,-1.82 2.548,-1.471l4.964,1.551c0.748,0.234 1.563,0.009 2.086,-0.574l3.387,-3.78c0.794,-0.887 2.184,-0.887 2.979,0z" fill="url(#color-2_119035_gr2)"></path><g fill="#ffffff"><path d="M42.695,21.733l-15.195,15.213l-5.235,-5.22c-0.977,-0.974 -2.558,-0.973 -3.533,0.003v0c-0.977,0.977 -0.976,2.562 0.002,3.538l7.002,6.985c0.977,0.975 2.559,0.973 3.534,-0.003l16.962,-16.982c0.975,-0.977 0.975,-2.559 -0.001,-3.535v0c-0.977,-0.976 -2.56,-0.976 -3.536,0.001z"></path></g></g></g>
</svg>