<svg xmlns="http://www.w3.org/2000/svg" x="0px" y="0px" width="100" height="100" viewBox="0,0,256,256">
<defs><radialGradient cx="36" cy="33" r="26.875" gradientUnits="userSpaceOnUse" id="color-1_119149_gr1"><stop offset="0" stop-color="#000000" stop-opacity="0"></stop><stop offset="0.193" stop-color="#000000" stop-opacity="0"></stop><stop offset="0.703" stop-color="#000000" stop-opacity="0"></stop><stop offset="1" stop-color="#000000" stop-opacity="0"></stop></radialGradient><radialGradient cx="32" cy="33.5" r="30.775" gradientUnits="userSpaceOnUse" id="color-2_119149_gr2"><stop offset="0" stop-color="#000000" stop-opacity="0"></stop><stop offset="0.193" stop-color="#000000" stop-opacity="0"></stop><stop offset="0.703" stop-color="#000000" stop-opacity="0"></stop><stop offset="1" stop-color="#000000" stop-opacity="0"></stop></radialGradient><linearGradient x1="32" y1="44.369" x2="32" y2="-22.466" gradientUnits="userSpaceOnUse" id="color-3_119149_gr3"><stop offset="0" stop-color="#ff9757"></stop><stop offset="1" stop-color="#ffb65b"></stop><stop offset="1" stop-color="#ffb65b"></stop></linearGradient></defs><g fill="none" fill-rule="nonzero" stroke="none" stroke-width="1" stroke-linecap="butt" stroke-linejoin="miter" stroke-miterlimit="10" stroke-dasharray="" stroke-dashoffset="0" font-family="none" font-weight="none" font-size="none" text-anchor="none" style="mix-blend-mode: normal"><g transform="scale(4,4)"><path d="M5.5,4v0c-2.485,0 -4.5,2.015 -4.5,4.5v0c0,2.485 2.015,4.5 4.5,4.5v0c2.485,0 4.5,-2.015 4.5,-4.5v0c0,-2.485 -2.015,-4.5 -4.5,-4.5z" fill="url(#color-1_119149_gr1)"></path><path d="M64,41v0c0,2.761 -2.239,5 -5,5h-5c-2.761,0 -5,2.238 -5,5v0c0,2.762 2.238,5 5,5h3.565c1.915,0 3.435,1.52 3.435,3.395v0.105c0,1.933 -1.567,3.5 -3.5,3.5h-49c-1.926,0 -3.49,-1.556 -3.5,-3.483v-0.017c-0.01,-1.93 1.553,-3.5 3.483,-3.5h3.517c2.209,0 4,-1.791 4,-4v0c0,-2.209 -1.791,-4 -4,-4h-7c-2.761,0 -5,-2.239 -5,-5v0c0,-2.761 2.239,-5 5,-5h1c2.209,0 4,-1.791 4,-4v0c0,-2.209 -1.791,-4 -4,-4h-0.5c-3.038,0 -5.5,-2.462 -5.5,-5.5v0c0,-3.038 2.462,-5.5 5.5,-5.5h13.5c1.657,0 3,-1.343 3,-3v0c0,-1.657 -1.343,-3 -3,-3h-1.5c-2.485,0 -4.5,-2.015 -4.5,-4.5v0c0,-2.485 2.015,-4.5 4.5,-4.5h15.5h22c2.209,0 4,1.791 4,4v0c0,2.209 -1.791,4 -4,4h-1.5c-1.933,0 -3.5,1.567 -3.5,3.5v0c0,1.933 1.567,3.5 3.5,3.5h6.5c2.209,0 4,1.791 4,4v0c0,2.209 -1.791,4 -4,4h-1.5c-2.485,0 -4.5,2.015 -4.5,4.5v0c0,2.485 2.015,4.5 4.5,4.5h0.5c2.761,0 5,2.239 5,5z" fill="url(#color-2_119149_gr2)"></path><path d="M8.036,48.199l20.967,-36.465c0.617,-1.073 1.76,-1.734 2.997,-1.734v0c1.237,0 2.38,0.661 2.997,1.734l20.967,36.465c0.647,1.125 0.687,2.499 0.107,3.66l-0.001,0.002c-0.656,1.311 -1.996,2.139 -3.462,2.139h-41.216c-1.466,0 -2.806,-0.828 -3.461,-2.139l-0.001,-0.002c-0.581,-1.161 -0.541,-2.535 0.106,-3.66z" fill="url(#color-3_119149_gr3)"></path><path d="M34,47c0,1.105 -0.895,2 -2,2c-1.105,0 -2,-0.895 -2,-2c0,-1.105 0.895,-2 2,-2c1.105,0 2,0.895 2,2zM32,24c-1.657,0 -3,1.343 -3,3l0.867,13.004c0.075,1.123 1.008,1.996 2.133,1.996c1.125,0 2.058,-0.873 2.133,-1.996l0.867,-13.004c0,-1.657 -1.343,-3 -3,-3z" fill="#ffffff"></path></g></g>
</svg>