<svg xmlns="http://www.w3.org/2000/svg" x="0px" y="0px" width="100" height="100" viewBox="0,0,256,256">
<g fill="none" fill-rule="nonzero" stroke="none" stroke-width="1" stroke-linecap="butt" stroke-linejoin="miter" stroke-miterlimit="10" stroke-dasharray="" stroke-dashoffset="0" font-family="none" font-weight="none" font-size="none" text-anchor="none" style="mix-blend-mode: normal"><g transform="scale(2.56,2.56)"><path d="M87.215,56.71c1.135,-2.155 1.785,-4.605 1.785,-7.21c0,-6.621 -4.159,-12.257 -10.001,-14.478c0,-0.007 0.001,-0.014 0.001,-0.022c0,-11.598 -9.402,-21 -21,-21c-9.784,0 -17.981,6.701 -20.313,15.757c-1.476,-0.485 -3.049,-0.757 -4.687,-0.757c-7.692,0 -14.023,5.793 -14.89,13.252c-5.204,1.101 -9.11,5.717 -9.11,11.248c0,6.351 5.149,11.5 11.5,11.5c0.177,0 0.352,-0.012 0.526,-0.022c-0.004,0.175 -0.026,0.346 -0.026,0.522c0,11.322 9.178,20.5 20.5,20.5c6.437,0 12.175,-2.972 15.934,-7.614c2.178,2.225 5.206,3.614 8.566,3.614c4.65,0 8.674,-2.65 10.666,-6.518c1.052,0.335 2.171,0.518 3.334,0.518c6.075,0 11,-4.925 11,-11c0,-3.311 -1.47,-6.273 -3.785,-8.29z" fill="#c7ede6"></path><path d="M65.125,46.5c0,0 -3.64,0 -6.125,0c-2.485,0 -4.5,-2.015 -4.5,-4.5c0,-2.333 1.782,-4.229 4.055,-4.455c-0.022,-0.181 -0.055,-0.358 -0.055,-0.545c0,-2.485 2.015,-4.5 4.5,-4.5c1.438,0 2.703,0.686 3.527,1.736c0.14,-2.636 2.302,-4.736 4.973,-4.736c2.761,0 5,2.239 5,5c0,0.446 -0.077,0.87 -0.187,1.282c0.642,-0.777 1.6,-1.282 2.687,-1.282c1.781,0 3.234,1.335 3.455,3.055c0.181,-0.022 0.358,-0.055 0.545,-0.055c2.485,0 4.5,2.015 4.5,4.5c0,2.485 -2.015,4.5 -4.5,4.5c-2.485,0 -9.5,0 -9.5,0h-5.375v0.5h-3z" fill="#fdfcef"></path><path d="M71.5,29c3.033,0 5.5,2.467 5.5,5.5c0,0.016 0,0.031 0,0.047c0.602,-0.355 1.29,-0.547 2,-0.547c1.831,0 3.411,1.261 3.858,3.005c0.047,-0.003 0.094,-0.005 0.142,-0.005c2.757,0 5,2.243 5,5c0,2.757 -2.243,5 -5,5h-14.875c-0.276,0 -0.5,-0.224 -0.5,-0.5c0,-0.276 0.224,-0.5 0.5,-0.5h14.875c2.206,0 4,-1.794 4,-4c0,-2.206 -1.794,-4 -4,-4c-0.117,0 -0.23,0.017 -0.343,0.032l-0.141,0.019c-0.021,0.003 -0.041,0.004 -0.062,0.004c-0.246,0 -0.462,-0.185 -0.495,-0.437c-0.191,-1.493 -1.463,-2.618 -2.959,-2.618c-0.885,0 -1.723,0.401 -2.301,1.1c-0.098,0.118 -0.241,0.182 -0.386,0.182c-0.078,0 -0.156,-0.018 -0.228,-0.056c-0.209,-0.107 -0.314,-0.346 -0.254,-0.573c0.115,-0.435 0.169,-0.801 0.169,-1.153c0,-2.481 -2.019,-4.5 -4.5,-4.5c-2.381,0 -4.347,1.872 -4.474,4.263c-0.011,0.208 -0.15,0.387 -0.349,0.45c-0.05,0.016 -0.101,0.024 -0.152,0.024c-0.15,0 -0.296,-0.069 -0.392,-0.192c-0.771,-0.982 -1.912,-1.545 -3.133,-1.545c-2.206,0 -4,1.794 -4,4c0,0.117 0.017,0.23 0.032,0.343l0.019,0.141c0.016,0.134 -0.022,0.268 -0.106,0.373c-0.084,0.105 -0.207,0.172 -0.34,0.185c-2.056,0.205 -3.605,1.907 -3.605,3.958c0,2.206 1.794,4 4,4h6.125c0.276,0 0.5,0.224 0.5,0.5c0,0.276 -0.224,0.5 -0.5,0.5h-6.125c-2.757,0 -5,-2.243 -5,-5c0,-2.397 1.689,-4.413 4.003,-4.877c-0.002,-0.041 -0.003,-0.082 -0.003,-0.123c0,-2.757 2.243,-5 5,-5c1.176,0 2.293,0.416 3.183,1.164c0.598,-2.404 2.762,-4.164 5.317,-4.164z" fill="#472b29"></path><path d="M73,36c1.403,0 2.609,0.999 2.913,2.341c0.367,-0.222 0.786,-0.341 1.212,-0.341c1.202,0 2.198,0.897 2.353,2.068c0.203,-0.046 0.396,-0.068 0.585,-0.068c1.529,0 2.811,1.2 2.918,2.732c0.009,0.138 -0.095,0.258 -0.232,0.268c-0.006,0 -0.012,0 -0.018,0c-0.13,0 -0.24,-0.101 -0.249,-0.232c-0.089,-1.271 -1.151,-2.268 -2.419,-2.268c-0.229,0 -0.47,0.042 -0.738,0.127c-0.022,0.007 -0.045,0.01 -0.067,0.01c-0.055,0 -0.11,-0.02 -0.156,-0.054c-0.064,-0.046 -0.102,-0.128 -0.102,-0.208c0,-1.034 -0.841,-1.875 -1.875,-1.875c-0.447,0 -0.885,0.168 -1.231,0.473c-0.047,0.041 -0.106,0.063 -0.165,0.063c-0.032,0 -0.063,-0.006 -0.093,-0.019c-0.088,-0.035 -0.148,-0.117 -0.155,-0.212c-0.104,-1.293 -1.193,-2.305 -2.481,-2.305c-0.208,0 -0.425,0.034 -0.682,0.107c-0.023,0.007 -0.047,0.01 -0.07,0.01c-0.109,0 -0.207,-0.073 -0.239,-0.182c-0.038,-0.133 0.039,-0.271 0.172,-0.309c0.302,-0.086 0.563,-0.126 0.819,-0.126zM59.117,37.5c1.326,0 2.508,0.897 2.874,2.182c0.038,0.133 -0.039,0.271 -0.172,0.309c-0.024,0.006 -0.047,0.009 -0.069,0.009c-0.109,0 -0.209,-0.072 -0.24,-0.182c-0.305,-1.07 -1.289,-1.818 -2.393,-1.818c-0.117,0 -0.23,0.014 -0.342,0.029c-0.012,0.002 -0.023,0.003 -0.035,0.003c-0.121,0 -0.229,-0.092 -0.246,-0.217c-0.019,-0.137 0.077,-0.263 0.214,-0.281c0.134,-0.018 0.27,-0.034 0.409,-0.034z" fill="#472b29"></path><path d="M26.405,37h-9.905c-0.276,0 -0.5,-0.224 -0.5,-0.5c0,-0.276 0.224,-0.5 0.5,-0.5h9.905c0.276,0 0.5,0.224 0.5,0.5c0,0.276 -0.223,0.5 -0.5,0.5zM29.5,37h-1c-0.276,0 -0.5,-0.224 -0.5,-0.5c0,-0.276 0.224,-0.5 0.5,-0.5h1c0.276,0 0.5,0.224 0.5,0.5c0,0.276 -0.223,0.5 -0.5,0.5zM34.491,39h-8.991c-0.276,0 -0.5,-0.224 -0.5,-0.5c0,-0.276 0.224,-0.5 0.5,-0.5h8.991c0.276,0 0.5,0.224 0.5,0.5c0,0.276 -0.224,0.5 -0.5,0.5zM23.5,39h-1c-0.276,0 -0.5,-0.224 -0.5,-0.5c0,-0.276 0.224,-0.5 0.5,-0.5h1c0.276,0 0.5,0.224 0.5,0.5c0,0.276 -0.223,0.5 -0.5,0.5zM20.5,39h-2c-0.276,0 -0.5,-0.224 -0.5,-0.5c0,-0.276 0.224,-0.5 0.5,-0.5h2c0.276,0 0.5,0.224 0.5,0.5c0,0.276 -0.223,0.5 -0.5,0.5zM26.5,41h-2c-0.276,0 -0.5,-0.224 -0.5,-0.5c0,-0.276 0.224,-0.5 0.5,-0.5h2c0.276,0 0.5,0.224 0.5,0.5c0,0.276 -0.224,0.5 -0.5,0.5zM29.5,32c-0.177,0 -0.823,0 -1,0c-0.276,0 -0.5,0.224 -0.5,0.5c0,0.276 0.224,0.5 0.5,0.5c0.177,0 0.823,0 1,0c0.276,0 0.5,-0.224 0.5,-0.5c0,-0.276 -0.224,-0.5 -0.5,-0.5zM29.5,34c-0.177,0 -4.823,0 -5,0c-0.276,0 -0.5,0.224 -0.5,0.5c0,0.276 0.224,0.5 0.5,0.5c0.177,0 4.823,0 5,0c0.276,0 0.5,-0.224 0.5,-0.5c0,-0.276 -0.224,-0.5 -0.5,-0.5zM34.5,36c-0.177,0 -2.823,0 -3,0c-0.276,0 -0.5,0.224 -0.5,0.5c0,0.276 0.224,0.5 0.5,0.5c0.177,0 2.823,0 3,0c0.276,0 0.5,-0.224 0.5,-0.5c0,-0.276 -0.224,-0.5 -0.5,-0.5z" fill="#ffffff"></path><g fill="#ffffff"><path d="M85.5,59h-10c-0.276,0 -0.5,-0.224 -0.5,-0.5c0,-0.276 0.224,-0.5 0.5,-0.5h10c0.276,0 0.5,0.224 0.5,0.5c0,0.276 -0.224,0.5 -0.5,0.5zM89.5,59h-2c-0.276,0 -0.5,-0.224 -0.5,-0.5c0,-0.276 0.224,-0.5 0.5,-0.5h2c0.276,0 0.5,0.224 0.5,0.5c0,0.276 -0.224,0.5 -0.5,0.5zM94.5,61h-10c-0.276,0 -0.5,-0.224 -0.5,-0.5c0,-0.276 0.224,-0.5 0.5,-0.5h10c0.276,0 0.5,0.224 0.5,0.5c0,0.276 -0.223,0.5 -0.5,0.5zM82.5,61h-1c-0.276,0 -0.5,-0.224 -0.5,-0.5c0,-0.276 0.224,-0.5 0.5,-0.5h1c0.276,0 0.5,0.224 0.5,0.5c0,0.276 -0.224,0.5 -0.5,0.5zM79.375,61h-1.875c-0.276,0 -0.5,-0.224 -0.5,-0.5c0,-0.276 0.224,-0.5 0.5,-0.5h1.875c0.276,0 0.5,0.224 0.5,0.5c0,0.276 -0.224,0.5 -0.5,0.5zM88.5,57h-5c-0.276,0 -0.5,-0.224 -0.5,-0.5c0,-0.276 0.224,-0.5 0.5,-0.5h5c0.276,0 0.5,0.224 0.5,0.5c0,0.276 -0.223,0.5 -0.5,0.5zM85.5,63h-2c-0.276,0 -0.5,-0.224 -0.5,-0.5c0,-0.276 0.224,-0.5 0.5,-0.5h2c0.276,0 0.5,0.224 0.5,0.5c0,0.276 -0.224,0.5 -0.5,0.5z"></path></g><g><path d="M28.955,67.3c-0.457,0 -0.863,-0.233 -1.089,-0.625c-0.221,-0.383 -0.22,-0.84 0.001,-1.223l21.046,-36.312c0.226,-0.389 0.632,-0.621 1.087,-0.621c0.455,0 0.861,0.232 1.087,0.622l21.045,36.312c0.222,0.383 0.222,0.84 0.001,1.223c-0.226,0.392 -0.632,0.625 -1.089,0.625h-42.089z" fill="#f15b6c"></path><path d="M50,29.218c0.121,0 0.344,0.035 0.481,0.273l21.045,36.312c0.132,0.227 0.057,0.425 0.001,0.522c-0.059,0.103 -0.2,0.274 -0.482,0.274h-42.09c-0.282,0 -0.423,-0.172 -0.482,-0.274c-0.056,-0.098 -0.131,-0.295 0.001,-0.522l21.045,-36.312c0.137,-0.237 0.36,-0.273 0.481,-0.273M50,27.818c-0.659,0 -1.317,0.324 -1.693,0.971l-21.045,36.312c-0.747,1.29 0.192,2.899 1.693,2.899h42.09c1.501,0 2.44,-1.609 1.693,-2.899l-21.045,-36.312c-0.376,-0.647 -1.034,-0.971 -1.693,-0.971z" fill="#472b29"></path></g><g fill="#ff0000"><path d="M66.242,63.591c-0.047,0.083 -0.131,0.13 -0.225,0.13h-32.034c-0.094,0 -0.178,-0.047 -0.225,-0.13c-0.047,-0.078 -0.047,-0.177 -0.005,-0.261l16.017,-28.314c0.094,-0.162 0.367,-0.162 0.461,0l16.017,28.314c0.042,0.084 0.042,0.183 -0.006,0.261z"></path></g><g fill="#472b29"><path d="M66.017,63.882h-32.034c-0.276,0 -0.522,-0.142 -0.659,-0.38c-0.13,-0.215 -0.139,-0.493 -0.017,-0.733c0.125,-0.247 0.427,-0.344 0.672,-0.219c0.137,0.07 0.228,0.193 0.26,0.332h31.368l-8.9,-15.535c-0.137,-0.24 -0.054,-0.545 0.186,-0.683c0.239,-0.136 0.544,-0.054 0.683,0.186l9.107,15.897c0.134,0.262 0.125,0.54 -0.012,0.766c-0.131,0.227 -0.378,0.369 -0.654,0.369zM65.802,63.223h0.01zM55.809,45.259c-0.173,0 -0.342,-0.09 -0.435,-0.251l-1.427,-2.493c-0.137,-0.24 -0.054,-0.545 0.186,-0.683c0.241,-0.138 0.546,-0.054 0.683,0.186l1.427,2.493c0.137,0.24 0.054,0.545 -0.186,0.683c-0.079,0.044 -0.164,0.065 -0.248,0.065zM35.912,59.722c-0.084,0 -0.169,-0.021 -0.248,-0.066c-0.24,-0.137 -0.323,-0.443 -0.186,-0.683l13.857,-24.207c0.272,-0.462 1.06,-0.457 1.326,-0.005l3.05,5.319c0.138,0.239 0.055,0.545 -0.185,0.682c-0.239,0.138 -0.545,0.054 -0.682,-0.185l-2.844,-4.958l-13.653,23.851c-0.093,0.161 -0.262,0.252 -0.435,0.252z"></path></g><g><path d="M50,56.7c-0.96871,0 -1.754,0.78529 -1.754,1.754c0,0.96871 0.78529,1.754 1.754,1.754c0.96871,0 1.754,-0.78529 1.754,-1.754c0,-0.96871 -0.78529,-1.754 -1.754,-1.754z" fill="#f15b6c"></path><path d="M50,60.458c-1.105,0 -2.004,-0.899 -2.004,-2.003c0,-1.104 0.899,-2.003 2.004,-2.003c1.104,0 2.003,0.899 2.003,2.003c0,1.104 -0.899,2.003 -2.003,2.003zM50,56.951c-0.829,0 -1.504,0.674 -1.504,1.503c0,0.829 0.675,1.503 1.504,1.503c0.829,0 1.503,-0.674 1.503,-1.503c0,-0.829 -0.674,-1.503 -1.503,-1.503z" fill="#472b29"></path></g><g><path d="M48.835,43.543h2.328c0.329,0 0.593,0.247 0.584,0.547l-0.265,9.671c-0.008,0.29 -0.267,0.521 -0.584,0.521h-1.798c-0.317,0 -0.576,-0.231 -0.584,-0.521l-0.265,-9.671c-0.008,-0.3 0.256,-0.547 0.584,-0.547z" fill="#f15b6c"></path><path d="M50.899,54.532h-1.799c-0.457,0 -0.823,-0.335 -0.834,-0.764l-0.265,-9.671c-0.005,-0.204 0.072,-0.398 0.218,-0.549c0.158,-0.162 0.382,-0.255 0.616,-0.255h2.329c0.234,0 0.458,0.093 0.616,0.255c0.146,0.15 0.224,0.346 0.218,0.549l-0.265,9.671c-0.011,0.429 -0.378,0.764 -0.834,0.764zM48.835,43.793c-0.1,0 -0.194,0.038 -0.258,0.104c-0.037,0.037 -0.079,0.1 -0.077,0.187l0.265,9.671c0.004,0.153 0.154,0.277 0.334,0.277h1.799c0.18,0 0.331,-0.125 0.334,-0.277l0.265,-9.671c0.002,-0.087 -0.04,-0.149 -0.077,-0.187c-0.064,-0.066 -0.158,-0.104 -0.257,-0.104z" fill="#472b29"></path></g><g><path d="M33.5,73.5c0,0 1.567,0 3.5,0c1.933,0 3.5,-1.567 3.5,-3.5c0,-1.781 -1.335,-3.234 -3.055,-3.455c0.028,-0.179 0.055,-0.358 0.055,-0.545c0,-1.933 -1.567,-3.5 -3.5,-3.5c-1.032,0 -1.95,0.455 -2.59,1.165c-0.384,-1.808 -1.987,-3.165 -3.91,-3.165c-2.209,0 -4,1.791 -4,4c0,0.191 0.03,0.374 0.056,0.558c-0.428,-0.344 -0.964,-0.558 -1.556,-0.558c-1.228,0 -2.245,0.887 -2.455,2.055c-0.179,-0.028 -0.358,-0.055 -0.545,-0.055c-1.933,0 -3.5,1.567 -3.5,3.5c0,1.933 1.567,3.5 3.5,3.5c1.933,0 7.5,0 7.5,0v0.5h7z" fill="#fdfcef"></path><path d="M35.25,69c-0.138,0 -0.25,-0.112 -0.25,-0.25c0,-1.223 0.995,-2.218 2.218,-2.218c0.034,0.009 0.737,-0.001 1.244,0.136c0.133,0.036 0.212,0.173 0.176,0.306c-0.036,0.134 -0.173,0.213 -0.306,0.176c-0.444,-0.12 -1.1,-0.12 -1.113,-0.118c-0.948,0 -1.719,0.771 -1.719,1.718c0,0.138 -0.112,0.25 -0.25,0.25zM28.5,73c-0.27614,0 -0.5,0.22386 -0.5,0.5c0,0.27614 0.22386,0.5 0.5,0.5c0.27614,0 0.5,-0.22386 0.5,-0.5c0,-0.27614 -0.22386,-0.5 -0.5,-0.5z" fill="#472b29"></path><path d="M37,74h-3.5c-0.276,0 -0.5,-0.224 -0.5,-0.5c0,-0.276 0.224,-0.5 0.5,-0.5h3.5c1.654,0 3,-1.346 3,-3c0,-1.496 -1.125,-2.768 -2.618,-2.959c-0.134,-0.018 -0.255,-0.088 -0.336,-0.196c-0.081,-0.108 -0.115,-0.244 -0.094,-0.377c0.023,-0.154 0.048,-0.308 0.048,-0.468c0,-1.654 -1.346,-3 -3,-3c-0.85,0 -1.638,0.355 -2.219,1c-0.125,0.139 -0.321,0.198 -0.5,0.148c-0.182,-0.049 -0.321,-0.195 -0.36,-0.379c-0.341,-1.604 -1.78,-2.769 -3.421,-2.769c-1.93,0 -3.5,1.57 -3.5,3.5c0,0.143 0.021,0.28 0.041,0.418c0.029,0.203 -0.063,0.438 -0.242,0.54c-0.179,0.102 -0.396,0.118 -0.556,-0.01c-0.365,-0.293 -0.794,-0.448 -1.243,-0.448c-0.966,0 -1.792,0.691 -1.963,1.644c-0.048,0.267 -0.296,0.446 -0.569,0.405c-0.154,-0.024 -0.308,-0.049 -0.468,-0.049c-1.654,0 -3,1.346 -3,3c0,1.654 1.346,3 3,3h7.5c0.276,0 0.5,0.224 0.5,0.5c0,0.276 -0.224,0.5 -0.5,0.5h-7.5c-2.206,0 -4,-1.794 -4,-4c0,-2.206 1.794,-4 4,-4c0.059,0 0.116,0.002 0.174,0.006c0.414,-1.186 1.537,-2.006 2.826,-2.006c0.349,0 0.689,0.061 1.011,0.18c0.165,-2.333 2.115,-4.18 4.489,-4.18c1.831,0 3.466,1.127 4.153,2.774c0.68,-0.498 1.502,-0.774 2.347,-0.774c2.206,0 4,1.794 4,4c0,0.048 -0.001,0.095 -0.004,0.142c1.743,0.448 3.004,2.027 3.004,3.858c0,2.206 -1.794,4 -4,4z" fill="#472b29"></path><path d="M31.5,73c-0.159,0 -0.841,0 -1,0c-0.276,0 -0.5,0.224 -0.5,0.5c0,0.276 0.224,0.5 0.5,0.5c0.159,0 0.841,0 1,0c0.276,0 0.5,-0.224 0.5,-0.5c0,-0.276 -0.224,-0.5 -0.5,-0.5z" fill="#472b29"></path></g></g></g>
</svg>